<svg xmlns="http://www.w3.org/2000/svg" xmlns:xlink="http://www.w3.org/1999/xlink" width="500" zoomAndPan="magnify" viewBox="0 0 375 374.999991" height="500" preserveAspectRatio="xMidYMid meet" version="1.0"><defs><clipPath id="65dbd9be21"><path d="M 19.453125 38 L 355.453125 38 L 355.453125 374 L 19.453125 374 Z M 19.453125 38 " clip-rule="nonzero"/></clipPath><clipPath id="d9991795f3"><path d="M 19.453125 174 L 113 174 L 113 351 L 19.453125 351 Z M 19.453125 174 " clip-rule="nonzero"/></clipPath><clipPath id="a78ebef5b6"><path d="M 83 38 L 355.453125 38 L 355.453125 335 L 83 335 Z M 83 38 " clip-rule="nonzero"/></clipPath><clipPath id="8a5d8e7bea"><path d="M 19.453125 40 L 305 40 L 305 374 L 19.453125 374 Z M 19.453125 40 " clip-rule="nonzero"/></clipPath></defs><path fill="#bc874d" d="M 202.773438 271.984375 C 211.046875 276.761719 211.089844 284.617188 202.871094 289.394531 C 194.691406 294.148438 181.226562 294.097656 172.949219 289.320312 C 164.675781 284.539062 164.628906 276.789062 172.808594 272.035156 C 181.03125 267.257812 194.496094 267.203125 202.773438 271.984375 Z M 202.773438 271.984375 " fill-opacity="1" fill-rule="nonzero"/><g clip-path="url(#65dbd9be21)"><path fill="#2ebf69" d="M 355.609375 206.167969 C 355.609375 248.488281 339.777344 287.226562 313.660156 316.753906 C 313.660156 316.84375 313.570312 316.933594 313.480469 317.023438 C 310.621094 320.242188 307.578125 323.464844 304.449219 326.328125 C 303.644531 327.222656 302.839844 327.9375 302.03125 328.742188 C 301.765625 328.921875 301.585938 329.101562 301.316406 329.277344 C 271.441406 356.925781 231.371094 373.746094 187.453125 373.746094 C 163.125 373.746094 140.046875 368.644531 119.117188 359.25 C 118.9375 359.164062 118.667969 359.074219 118.492188 358.984375 C 110.976562 355.671875 103.910156 351.648438 97.023438 347.261719 C 96.128906 346.726562 95.234375 346.1875 94.339844 345.652344 C 94.070312 345.472656 93.714844 345.292969 93.445312 345.027344 C 93 344.757812 92.550781 344.488281 92.105469 344.21875 C 91.925781 344.128906 91.835938 344.042969 91.746094 343.953125 C 48.007812 313.800781 19.296875 263.25 19.296875 206.167969 C 19.296875 198.203125 19.921875 190.332031 20.996094 182.726562 C 21.175781 181.117188 21.441406 179.59375 21.710938 178.074219 L 21.710938 177.984375 C 21.890625 177 22.070312 176.015625 22.246094 174.941406 C 29.761719 135.039062 51.40625 100.234375 81.816406 75.808594 C 83.429688 74.378906 85.039062 73.125 86.828125 71.871094 C 87.273438 71.515625 87.722656 71.15625 88.167969 70.800781 C 109.457031 55.230469 134.589844 44.585938 161.871094 40.378906 C 170.191406 39.125 178.777344 38.5 187.453125 38.5 C 232.265625 38.5 272.875 55.945312 303.015625 84.398438 C 306.773438 87.886719 310.441406 91.644531 313.75 95.582031 C 314.375 96.207031 314.824219 96.746094 315.269531 97.371094 C 317.058594 99.339844 318.671875 101.308594 320.191406 103.367188 C 320.996094 104.351562 321.710938 105.246094 322.425781 106.320312 C 343.265625 134.144531 355.609375 168.769531 355.609375 206.167969 Z M 355.609375 206.167969 " fill-opacity="1" fill-rule="nonzero"/></g><g clip-path="url(#d9991795f3)"><path fill="#84dbff" d="M 112.34375 284.917969 C 111.578125 290.699219 110.558594 296.417969 109.285156 302.070312 C 108.074219 307.53125 106.289062 312.871094 105.078125 318.269531 C 104.632812 320.175781 105.269531 322.335938 104.886719 324.242188 C 103.996094 329.832031 102.46875 335.359375 101.765625 340.945312 C 101.386719 343.933594 102.214844 347.046875 102.46875 350.285156 C 99.726562 348.824219 96.988281 347.300781 94.378906 345.648438 C 94.058594 345.457031 93.738281 345.265625 93.421875 345.011719 C 92.976562 344.757812 92.53125 344.503906 92.082031 344.1875 C 91.957031 344.125 91.828125 344.058594 91.765625 343.933594 C 48 313.757812 19.332031 263.257812 19.332031 206.148438 C 19.332031 198.207031 19.90625 190.332031 20.988281 182.707031 C 22.582031 183.789062 24.109375 184.867188 25.640625 185.949219 C 25.894531 185.695312 26.148438 185.441406 26.402344 185.1875 C 24.8125 182.835938 23.28125 180.421875 21.753906 178.070312 L 21.753906 178.007812 C 21.878906 176.992188 22.070312 175.972656 22.261719 174.957031 C 23.15625 175.65625 24.046875 176.355469 24.875 177.183594 C 27.359375 179.722656 29.652344 182.328125 32.007812 184.933594 C 32.519531 185.503906 33.347656 186.074219 33.476562 186.710938 C 35.894531 197.636719 46.472656 197.828125 53.796875 202.210938 C 54.242188 202.527344 55.261719 201.765625 55.960938 201.828125 C 57.808594 201.957031 59.722656 201.957031 61.378906 202.589844 C 64.5625 203.863281 67.75 205.324219 70.679688 206.976562 C 72.972656 208.308594 75.011719 210.152344 77.175781 211.804688 C 80.679688 214.535156 84.183594 217.265625 87.75 219.996094 C 87.941406 220.1875 88.515625 220.25 88.644531 220.0625 C 91.066406 217.648438 92.976562 216.695312 95.078125 220.695312 C 97.242188 224.890625 97.179688 228.574219 93.996094 232.128906 C 93.613281 232.574219 93.292969 233.210938 92.785156 233.527344 C 89.664062 235.5625 87.816406 237.847656 89.535156 241.851562 C 89.917969 242.738281 88.707031 244.136719 88.578125 245.34375 C 88.453125 246.679688 88.386719 248.203125 89.027344 249.28125 C 92.148438 254.683594 95.394531 260.082031 98.898438 265.289062 C 100.367188 267.511719 102.214844 269.925781 104.507812 271.132812 C 111.832031 274.945312 113.296875 276.914062 112.34375 284.917969 Z M 112.34375 284.917969 " fill-opacity="1" fill-rule="nonzero"/></g><path fill="#84dbff" d="M 101.394531 192.046875 C 94.53125 189.953125 89.003906 188.269531 83.871094 186.703125 C 87.613281 184.214844 94.144531 185.738281 101.394531 192.046875 Z M 101.394531 192.046875 " fill-opacity="1" fill-rule="nonzero"/><path fill="#84dbff" d="M 115.855469 196.84375 C 111.972656 196.433594 108.792969 196.101562 105.167969 195.71875 C 108.789062 191.355469 113.125 191.625 115.855469 196.84375 Z M 115.855469 196.84375 " fill-opacity="1" fill-rule="nonzero"/><g clip-path="url(#a78ebef5b6)"><path fill="#2ecc71" d="M 355.609375 206.167969 C 355.609375 248.488281 339.777344 287.226562 313.660156 316.753906 C 313.660156 316.84375 313.570312 316.933594 313.480469 317.023438 C 310.621094 320.242188 307.578125 323.464844 304.449219 326.328125 C 287.988281 331.515625 270.371094 334.289062 252.03125 334.289062 C 159.097656 334.289062 83.875 262.980469 83.875 175.03125 C 83.875 118.398438 115.003906 68.652344 161.871094 40.378906 C 170.191406 39.125 178.777344 38.5 187.453125 38.5 C 232.265625 38.5 272.875 55.945312 303.015625 84.398438 C 306.773438 87.886719 310.441406 91.644531 313.75 95.582031 C 314.375 96.207031 314.824219 96.746094 315.269531 97.371094 C 317.058594 99.339844 318.671875 101.308594 320.191406 103.367188 C 320.996094 104.351562 321.710938 105.246094 322.425781 106.320312 C 343.265625 134.144531 355.609375 168.769531 355.609375 206.167969 Z M 355.609375 206.167969 " fill-opacity="1" fill-rule="nonzero"/></g><path fill="#84dbff" d="M 337.902344 156.574219 C 328.417969 156.664062 327.703125 154.960938 323.589844 146.195312 C 322.070312 147 320.546875 147.714844 319.117188 148.609375 C 321.53125 153.621094 321.355469 154.246094 315.808594 155.769531 C 312.945312 151.832031 310.621094 147.269531 307.3125 143.867188 C 304 140.46875 299.707031 138.320312 295.863281 135.457031 C 295.324219 136.175781 294.878906 136.800781 294.339844 137.515625 C 298.1875 140.738281 301.945312 143.777344 305.878906 147 C 305.34375 148.164062 304.714844 149.683594 304.449219 150.667969 C 301.316406 148.789062 298.007812 147.089844 294.878906 145.121094 C 293.445312 144.136719 291.746094 143.242188 290.941406 141.988281 C 286.738281 135.367188 281.820312 144.40625 277.523438 141.09375 C 277.167969 140.917969 275.378906 142.078125 274.574219 142.882812 C 271.265625 146.375 268.132812 150.042969 264.734375 153.351562 C 263.570312 154.515625 261.691406 154.875 260.082031 155.410156 C 258.292969 156.035156 256.503906 156.304688 254.714844 156.753906 C 253.285156 156.125 251.765625 155.140625 250.246094 154.695312 C 246.84375 153.710938 245.234375 152.277344 246.757812 148.609375 C 247.292969 147.269531 247.023438 145.746094 246.757812 144.40625 C 246.488281 141.363281 247.917969 139.84375 250.871094 139.933594 C 254 139.933594 257.042969 140.46875 259.992188 140.199219 C 261.515625 139.84375 264.109375 138.320312 264.289062 137.070312 C 264.464844 135.546875 263.035156 133.492188 261.871094 132.058594 C 261.066406 131.164062 259.367188 130.984375 257.132812 129.910156 C 262.320312 128.390625 266.523438 127.136719 271.621094 125.617188 C 265.898438 123.648438 260.082031 126.691406 255.96875 121.679688 C 257.488281 120.070312 258.652344 118.816406 260.171875 116.757812 C 258.027344 116.132812 256.417969 115.863281 254.628906 115.328125 C 254.359375 117.117188 254.539062 118.996094 253.824219 119.53125 C 251.585938 120.964844 248.992188 121.949219 246.578125 123.113281 C 246.128906 121.324219 244.96875 118.816406 245.683594 117.652344 C 247.023438 116.042969 249.617188 115.238281 251.585938 114.074219 C 252.035156 113.984375 252.300781 113.628906 252.660156 113.359375 C 252.210938 111.925781 251.945312 110.855469 251.585938 109.691406 C 253.285156 108.796875 254.984375 107.542969 256.417969 107.542969 C 258.382812 107.453125 262.230469 108.257812 262.320312 109.066406 C 262.585938 114.878906 267.953125 116.757812 270.636719 120.695312 C 272.695312 123.648438 274.484375 122.664062 276.632812 121.589844 C 279.582031 120.25 282.625 118.550781 285.753906 117.027344 C 284.589844 112.195312 285.394531 111.121094 290.671875 111.300781 C 289.957031 115.328125 292.105469 116.757812 295.859375 116.667969 C 301.226562 116.492188 306.503906 116.582031 312.050781 116.582031 C 312.230469 111.210938 314.464844 108.886719 319.027344 109.691406 C 316.613281 105.484375 313.839844 101.371094 310.976562 97.523438 C 309.1875 98.417969 307.132812 98.953125 304.449219 100.117188 C 306.503906 101.816406 307.667969 102.621094 308.832031 103.605469 C 303.285156 112.824219 301.855469 113.71875 294.339844 113.359375 C 293.445312 111.035156 292.460938 108.707031 291.566406 106.648438 C 290.675781 106.828125 290.316406 106.738281 290.046875 106.828125 C 287.8125 109.242188 284.859375 110.316406 282.445312 108.257812 C 280.65625 106.917969 279.3125 103.695312 279.671875 101.816406 C 280.117188 99.9375 282.800781 98.328125 284.859375 97.074219 C 288.886719 94.210938 293.179688 91.796875 297.292969 89.113281 C 298.8125 88.039062 300.15625 86.875 301.675781 85.535156 C 301.40625 85.085938 300.960938 84.730469 300.421875 84.191406 C 297.292969 80.523438 293.984375 77.035156 290.496094 73.722656 C 262.765625 52.160156 227.972656 39.277344 190.40625 38.652344 C 189.421875 38.5625 188.4375 38.5625 187.453125 38.5625 C 178.6875 38.5625 170.101562 39.1875 161.605469 40.53125 C 161.15625 40.621094 160.710938 40.621094 160.171875 40.710938 C 159.1875 40.800781 158.207031 40.976562 157.222656 41.246094 C 131.730469 45.808594 108.292969 56.097656 88.257812 70.859375 C 88.527344 70.949219 88.886719 71.039062 89.152344 71.308594 C 88.347656 71.578125 87.632812 71.667969 86.738281 71.933594 C 85.128906 73.1875 83.429688 74.441406 81.820312 75.78125 C 87.722656 72.828125 93.894531 73.8125 100.332031 76.230469 C 103.554688 77.480469 106.863281 78.464844 110.261719 79.539062 C 112.140625 80.164062 114.375 80.164062 116.164062 80.972656 C 117.597656 81.597656 118.847656 82.761719 119.296875 85.085938 C 119.386719 85.535156 120.546875 85.714844 121.265625 86.070312 C 124.753906 87.324219 128.332031 88.574219 131.820312 89.828125 C 128.6875 96.628906 123.859375 90.632812 119.566406 91.796875 C 121.800781 94.035156 123.589844 95.914062 125.289062 97.703125 C 124.929688 98.148438 124.664062 98.6875 124.304688 99.3125 C 119.65625 98.6875 115.183594 98.148438 110.710938 97.34375 C 109.011719 97.074219 107.3125 96.808594 105.613281 96.539062 C 102.839844 96.089844 99.976562 95.734375 97.292969 95.195312 C 96.308594 95.019531 95.59375 94.210938 94.699219 93.675781 C 95.503906 92.960938 96.039062 92.066406 96.84375 91.707031 C 99.886719 90.542969 103.015625 89.648438 106.058594 88.574219 C 105.878906 87.859375 105.613281 87.234375 105.433594 86.339844 C 103.015625 87.234375 100.511719 87.859375 97.738281 88.664062 C 98.1875 86.785156 98.542969 85.535156 99.082031 83.65625 L 86.46875 83.65625 C 87.632812 85.714844 88.257812 86.875 89.421875 88.933594 C 85.308594 89.382812 81.820312 89.917969 77.613281 90.542969 C 82.175781 92.246094 86.113281 93.855469 90.046875 95.375 C 89.957031 95.734375 89.78125 96.269531 89.691406 96.628906 C 86.113281 96.359375 82.535156 96.089844 77.972656 95.824219 C 77.882812 95.734375 76.988281 94.570312 76.183594 93.496094 C 74.933594 94.210938 73.949219 94.839844 72.785156 95.375 C 68.9375 97.253906 64.824219 98.867188 61.15625 101.191406 C 57.757812 103.339844 57.757812 105.753906 61.425781 107.453125 C 67.0625 109.871094 73.054688 112.285156 79.136719 113.359375 C 84.234375 114.164062 87.542969 116.042969 89.332031 120.875 C 89.511719 121.5 91.480469 121.949219 92.460938 121.859375 C 93.089844 121.679688 93.714844 120.070312 93.625 119.175781 C 93.359375 117.5625 92.730469 115.953125 92.460938 114.789062 C 94.429688 113.894531 96.488281 113.449219 97.472656 112.195312 C 98.007812 111.300781 96.667969 109.152344 95.773438 107.902344 C 93.714844 104.769531 96.039062 98.953125 99.796875 99.3125 C 101.140625 99.402344 102.480469 99.492188 103.734375 99.761719 C 107.222656 100.207031 110.710938 101.101562 114.019531 101.816406 C 115.269531 108.617188 117.238281 108.707031 123.859375 103.605469 C 129.492188 108.082031 134.949219 112.375 140.40625 116.847656 C 141.746094 117.921875 143.089844 118.996094 144.429688 120.070312 C 143.714844 121.589844 143 123.378906 142.195312 124.722656 C 145.058594 126.691406 147.5625 128.390625 150.246094 130.179688 C 149.976562 130.539062 149.796875 130.984375 149.351562 131.253906 L 136.558594 131.253906 C 136.917969 130.628906 137.183594 130.089844 137.542969 129.554688 C 138.886719 127.226562 139.957031 125.167969 141.566406 122.304688 C 140.585938 122.753906 139.601562 123.199219 138.707031 123.648438 C 134.679688 125.527344 131.460938 127.046875 128.332031 128.390625 C 124.125 123.917969 121.441406 124.097656 116.167969 130.089844 C 118.582031 129.375 120.011719 128.660156 121.441406 128.570312 C 122.605469 128.570312 124.753906 129.285156 124.929688 129.910156 C 125.738281 134.472656 129.136719 134.117188 132.445312 134.117188 C 133.429688 134.117188 134.414062 135.457031 135.664062 136.621094 C 122.25 141.542969 122.25 141.542969 119.832031 137.964844 C 115.71875 139.039062 110.261719 138.5 111.960938 146.195312 C 103.824219 143.242188 103.824219 151.921875 99.796875 154.246094 C 99.082031 156.394531 98.007812 158.542969 96.488281 160.0625 C 94.519531 162.03125 92.285156 163.640625 90.046875 165.074219 C 87.363281 166.59375 87.097656 168.203125 88.347656 170.890625 C 89.511719 173.753906 89.78125 176.882812 90.585938 179.925781 C 89.957031 180.105469 89.152344 180.460938 88.527344 180.730469 C 87.007812 178.582031 85.484375 176.257812 83.875 174.019531 C 82.890625 172.855469 81.730469 171.605469 80.386719 170.890625 C 73.230469 167.132812 66.078125 173.304688 58.921875 171.515625 C 58.472656 171.425781 58.117188 172.050781 57.757812 172.230469 C 51.585938 174.648438 52.300781 180.371094 51.765625 185.203125 C 51.226562 190.035156 54.269531 192.898438 57.9375 195.136719 C 60.351562 196.566406 65.808594 194.6875 66.523438 192.09375 C 67.777344 187.441406 71.710938 188.695312 73.949219 189.5 C 77.347656 190.394531 74.574219 192.808594 73.949219 194.777344 C 73.320312 196.746094 73.589844 198.984375 73.410156 201.128906 C 75.199219 201.21875 76.988281 201.398438 78.777344 201.308594 C 82.085938 200.859375 84.054688 202.828125 83.609375 206.050781 C 83.429688 207.929688 82.714844 209.898438 83.25 211.597656 C 83.875 213.476562 85.84375 216.429688 86.738281 216.429688 C 87.722656 216.25 88.617188 216.070312 89.511719 215.890625 C 92.195312 215.355469 94.878906 214.996094 97.5625 216.699219 C 98.007812 216.964844 99.441406 215.265625 100.421875 214.640625 C 103.015625 212.671875 105.613281 210.882812 109.097656 208.375 L 109.097656 214.371094 C 111.066406 213.03125 113.839844 210.613281 114.375 211.0625 C 120.191406 215.890625 127.078125 210.792969 132.890625 213.65625 C 132.890625 214.640625 132.714844 215.980469 132.714844 216.875 C 135.039062 218.128906 137.183594 218.84375 138.527344 220.367188 C 140.675781 222.511719 142.460938 223.675781 145.59375 223.320312 C 147.292969 223.140625 149.707031 224.480469 151.855469 226.449219 C 154.539062 228.597656 156.863281 231.640625 157.398438 233.609375 C 157.847656 235.398438 159.726562 237.632812 161.425781 237.902344 C 170.371094 240.050781 179.046875 243.003906 187.363281 247.027344 C 190.046875 248.371094 191.925781 250.785156 190.136719 254.1875 C 188.4375 257.316406 186.203125 260.179688 184.414062 263.3125 C 183.609375 264.652344 182.804688 266.085938 182.265625 267.515625 C 181.90625 268.410156 181.640625 269.304688 181.550781 270.199219 C 181.015625 275.570312 179.761719 280.757812 176.273438 284.695312 C 174.753906 286.484375 171.53125 286.574219 169.117188 287.738281 C 166.792969 288.722656 164.378906 289.617188 162.230469 291.136719 C 161.246094 291.941406 160.261719 293.730469 160.441406 294.984375 C 161.066406 299.101562 158.027344 300.980469 155.878906 303.304688 C 155.34375 303.753906 154.804688 304.199219 154.269531 304.558594 C 153.734375 305.003906 153.195312 305.453125 152.929688 306.078125 C 150.691406 311.089844 147.292969 314.132812 141.480469 313.414062 C 142.195312 319.230469 140.046875 322.183594 134.234375 322.003906 C 130.925781 322.003906 128.777344 322.898438 128.507812 326.210938 L 123.230469 326.210938 C 124.304688 328 125.019531 329.25 125.738281 330.503906 C 123.5 333.007812 121.175781 335.605469 118.757812 338.109375 C 120.28125 339.09375 121.441406 339.898438 123.140625 341.0625 C 120.816406 343.03125 118.9375 344.730469 117.058594 346.25 C 114.554688 348.128906 114.199219 350.007812 115.71875 351.886719 C 133.964844 358.777344 153.554688 362.445312 174.214844 362.445312 C 209.1875 362.445312 241.65625 351.707031 268.492188 333.457031 C 275.378906 328.804688 281.90625 323.613281 288.078125 317.976562 C 288.257812 317.710938 288.527344 317.53125 288.707031 317.351562 C 289.332031 316.816406 289.957031 316.277344 290.496094 315.652344 C 293.894531 312.519531 297.113281 309.121094 300.15625 305.542969 C 300.332031 305.542969 300.332031 305.453125 300.332031 305.363281 C 301.675781 303.753906 303.105469 302.230469 304.359375 300.53125 C 304 299.996094 303.820312 299.457031 303.464844 298.921875 C 302.660156 297.398438 300.78125 295.878906 300.871094 294.539062 C 301.40625 287.648438 297.292969 282.371094 294.699219 276.644531 C 292.550781 272.078125 292.375 267.515625 296.667969 263.492188 C 297.292969 262.773438 298.277344 261.34375 297.917969 260.808594 C 295.234375 255.347656 296.398438 248.101562 291.03125 243.898438 C 286.023438 239.960938 287.542969 235.488281 289.0625 230.65625 C 289.332031 229.671875 289.511719 227.523438 288.886719 227.164062 C 287.902344 226.269531 285.753906 225.824219 284.769531 226.359375 C 281.730469 227.882812 280.296875 226.71875 278.421875 224.300781 C 277.347656 222.78125 274.035156 221.261719 272.695312 221.886719 C 266.972656 224.570312 261.15625 225.464844 254.984375 225.019531 C 254.359375 224.929688 253.195312 225.109375 252.75 225.554688 C 250.066406 228.597656 247.917969 226.71875 246.039062 224.75 C 242.285156 220.8125 239.152344 215.980469 234.589844 213.296875 C 230.476562 210.882812 228.421875 206.675781 229.671875 204.261719 C 232.714844 198.535156 230.835938 192.71875 231.820312 187.171875 C 232.714844 181.894531 235.753906 176.4375 241.65625 173.753906 C 243.445312 172.855469 245.058594 170.53125 245.503906 168.382812 C 246.757812 162.925781 250.960938 160.0625 255.433594 159.167969 C 265.003906 156.933594 274.753906 155.589844 284.414062 154.246094 C 286.46875 153.890625 289.242188 154.335938 290.675781 155.589844 C 291.65625 156.394531 290.941406 159.347656 290.941406 162.210938 C 295.234375 164.089844 300.335938 166.59375 305.789062 168.382812 C 307.3125 168.921875 309.457031 167.667969 311.246094 166.953125 C 313.394531 166.324219 315.359375 164.445312 317.148438 164.625 C 323.589844 165.164062 330.121094 166.414062 336.648438 167.308594 C 337.902344 167.578125 339.0625 167.488281 340.046875 167.21875 C 339.421875 163.550781 338.707031 159.972656 337.902344 156.574219 Z M 96.488281 190.484375 C 94.96875 190.125 93.355469 189.675781 92.015625 189.140625 C 90.941406 188.871094 90.046875 188.515625 89.0625 188.335938 C 88.796875 188.246094 88.527344 188.246094 88.347656 188.066406 C 86.917969 187.710938 85.664062 187.261719 84.414062 186.902344 C 84.234375 186.8125 84.054688 186.8125 83.875 186.726562 C 84.054688 186.636719 84.144531 186.546875 84.324219 186.546875 C 88.078125 184.308594 94.339844 186.007812 101.316406 192.09375 C 99.707031 191.554688 98.007812 191.019531 96.488281 190.484375 Z M 113.125 196.566406 C 112.140625 196.476562 111.15625 196.386719 110.351562 196.296875 C 109.90625 196.296875 109.546875 196.210938 109.097656 196.210938 C 107.847656 196.121094 106.503906 195.941406 105.074219 195.761719 C 106.773438 193.703125 108.652344 192.71875 110.441406 192.71875 C 110.796875 192.71875 111.335938 192.71875 111.605469 192.808594 C 111.695312 192.808594 111.871094 192.898438 111.960938 192.898438 C 112.050781 193.078125 112.230469 193.167969 112.320312 193.167969 C 112.585938 193.167969 112.765625 193.347656 113.125 193.433594 C 113.394531 193.703125 113.75 193.972656 114.019531 194.328125 C 114.199219 194.507812 114.375 194.597656 114.464844 194.777344 L 114.464844 194.957031 C 114.644531 195.046875 114.734375 195.222656 114.914062 195.3125 C 115.09375 195.582031 115.183594 195.671875 115.269531 195.851562 C 115.539062 196.121094 115.628906 196.386719 115.808594 196.835938 C 114.914062 196.746094 113.929688 196.566406 113.125 196.566406 Z M 218.222656 94.839844 C 218.222656 94.839844 218.042969 94.75 218.042969 94.660156 C 217.863281 94.480469 217.597656 94.210938 217.507812 93.945312 C 217.238281 93.050781 216.96875 92.15625 216.613281 91.4375 C 217.597656 91.082031 218.582031 90.367188 219.386719 90.367188 C 223.5 90.367188 227.613281 90.453125 231.640625 90.632812 C 233.25 90.902344 234.859375 91.527344 237.363281 92.15625 C 230.65625 97.703125 224.574219 97.792969 218.222656 94.839844 Z M 235.308594 54.667969 C 232.535156 56.722656 229.492188 58.605469 226.71875 60.75 C 224.929688 62.183594 223.589844 63.523438 225.824219 66.207031 C 227.882812 68.714844 224.214844 74.527344 220.90625 74.796875 C 219.652344 74.976562 218.492188 75.246094 216.792969 75.601562 C 217.417969 77.570312 217.863281 79.179688 218.492188 81.328125 C 212.320312 84.460938 205.433594 86.25 198.457031 87.234375 C 196.308594 87.503906 194.429688 88.753906 192.460938 89.382812 C 190.671875 90.007812 188.972656 90.8125 187.097656 91.082031 C 182.980469 91.527344 178.597656 91.171875 177.078125 96.628906 C 176.453125 98.953125 174.214844 100.742188 172.425781 102.621094 C 171.800781 103.339844 170.371094 104.234375 169.742188 103.875 C 164.019531 102.085938 157.667969 101.726562 154.089844 95.914062 C 152.925781 93.855469 151.675781 91.886719 150.511719 89.917969 C 149.261719 87.949219 148.1875 85.890625 147.292969 83.835938 C 146.84375 82.9375 149.4375 80.613281 151.226562 78.199219 C 149.351562 78.644531 147.292969 79.179688 145.414062 79.808594 C 142.730469 71.578125 137.09375 67.996094 126.988281 68.445312 L 126.898438 68.445312 C 123.679688 68.625 120.457031 69.25 117.148438 69.609375 C 116.34375 69.609375 115.359375 69.070312 114.554688 68.625 C 112.585938 67.460938 110.53125 66.207031 108.832031 65.3125 C 112.855469 63.523438 119.476562 62.808594 121.351562 59.410156 C 124.125 54.488281 129.136719 55.292969 132.445312 52.160156 C 135.128906 49.65625 141.300781 50.105469 145.683594 50.460938 C 146.128906 50.550781 146.488281 50.550781 146.84375 50.550781 C 153.644531 51.265625 153.820312 51.445312 156.59375 44.734375 C 157.847656 45.449219 158.921875 46.347656 160.441406 47.332031 C 163.660156 41.605469 169.207031 42.140625 174.304688 42.140625 C 178.417969 42.050781 182.535156 41.960938 186.648438 41.960938 C 195.324219 41.871094 204 41.78125 212.675781 41.695312 C 217.597656 41.695312 218.582031 45.539062 219.476562 49.03125 C 221.085938 54.84375 223.320312 55.742188 228.242188 51.984375 C 231.640625 49.386719 235.039062 48.941406 239.511719 51.445312 C 237.902344 52.789062 236.558594 53.863281 235.308594 54.667969 Z M 235.308594 54.667969 " fill-opacity="1" fill-rule="nonzero"/><g clip-path="url(#8a5d8e7bea)"><path fill="#328eb7" d="M 304.449219 326.300781 C 303.644531 327.195312 302.839844 327.910156 302.03125 328.714844 C 301.765625 328.894531 301.585938 329.074219 301.316406 329.25 C 271.441406 356.898438 231.371094 373.71875 187.453125 373.71875 C 163.125 373.71875 140.046875 368.617188 119.117188 359.222656 C 118.9375 359.132812 118.671875 359.042969 118.492188 358.957031 C 110.976562 355.644531 103.910156 351.621094 97.023438 347.234375 C 96.128906 346.699219 95.234375 346.160156 94.339844 345.625 C 94.074219 345.445312 93.714844 345.265625 93.445312 345 C 93 344.730469 92.550781 344.460938 92.105469 344.191406 C 91.925781 344.101562 91.835938 344.015625 91.746094 343.925781 C 48.007812 313.773438 19.296875 263.222656 19.296875 206.140625 C 19.296875 198.175781 19.921875 190.304688 20.996094 182.699219 C 21.175781 181.089844 21.441406 179.566406 21.710938 178.046875 L 21.710938 177.957031 C 21.890625 176.972656 22.070312 175.988281 22.25 174.914062 C 29.761719 135.011719 51.40625 100.207031 81.820312 75.78125 C 83.429688 74.351562 85.039062 73.097656 86.828125 71.84375 C 87.273438 71.488281 87.722656 71.128906 88.167969 70.769531 C 109.457031 55.203125 134.589844 44.558594 161.871094 40.351562 C 115.003906 68.625 83.875 118.371094 83.875 175.003906 C 83.875 262.953125 159.097656 334.261719 252.035156 334.261719 C 270.371094 334.261719 287.988281 331.488281 304.449219 326.300781 Z M 304.449219 326.300781 " fill-opacity="0.19" fill-rule="nonzero"/></g><path fill="#3498db" d="M 290.496094 315.652344 C 289.957031 316.277344 289.332031 316.816406 288.707031 317.351562 C 288.527344 317.53125 288.257812 317.710938 288.078125 317.976562 C 281.90625 323.613281 275.378906 328.804688 268.492188 333.457031 C 263.125 333.992188 257.578125 334.261719 252.035156 334.261719 C 215.628906 334.261719 181.820312 323.257812 154.269531 304.558594 C 122.875 283.351562 99.617188 252.128906 89.511719 215.890625 C 86.828125 206.585938 85.128906 196.835938 84.414062 186.902344 C 84.324219 186.8125 84.324219 186.636719 84.324219 186.546875 C 84.054688 182.699219 83.875 178.851562 83.875 175.003906 L 83.875 174.019531 C 84.054688 152.101562 88.796875 131.164062 97.472656 112.195312 C 99.351562 107.902344 101.40625 103.785156 103.734375 99.757812 C 104.359375 98.597656 104.984375 97.523438 105.609375 96.539062 C 108.832031 91.171875 112.320312 85.980469 116.164062 80.972656 C 119.566406 76.585938 123.140625 72.382812 126.988281 68.445312 C 133.070312 62.003906 139.691406 56.007812 146.84375 50.550781 C 151.496094 46.972656 156.503906 43.660156 161.605469 40.53125 C 170.101562 39.1875 178.6875 38.5625 187.453125 38.5625 C 188.4375 38.5625 189.421875 38.5625 190.40625 38.652344 C 189.0625 39.636719 187.902344 40.710938 186.648438 41.960938 C 171.710938 55.5625 159.367188 71.753906 150.511719 89.917969 C 146.308594 98.507812 142.910156 107.453125 140.40625 116.847656 C 139.78125 119.085938 139.152344 121.324219 138.707031 123.648438 C 138.257812 125.617188 137.8125 127.585938 137.542969 129.554688 C 137.363281 130.089844 137.273438 130.71875 137.183594 131.253906 C 135.753906 139.574219 135.039062 148.164062 135.039062 156.84375 C 135.039062 181.804688 141.121094 205.425781 151.855469 226.449219 C 159.636719 241.660156 169.921875 255.527344 182.265625 267.515625 C 210.082031 294.804688 248.097656 312.609375 290.496094 315.652344 Z M 290.496094 315.652344 " fill-opacity="0.19" fill-rule="nonzero"/><path fill="#ecf0f1" d="M 283.007812 178.699219 C 267.113281 193.03125 240.746094 190.019531 224.128906 171.710938 C 207.632812 153.527344 207.03125 126.90625 222.925781 112.453125 C 238.820312 98 265.1875 101.132812 281.804688 119.320312 C 298.421875 137.628906 298.902344 164.125 283.007812 178.699219 Z M 283.007812 178.699219 " fill-opacity="0.4" fill-rule="nonzero"/><path fill="#5b5e71" d="M 74.382812 241.632812 L 73.433594 237.105469 L 77.988281 236.183594 L 78.878906 240.710938 Z M 74.382812 241.632812 " fill-opacity="1" fill-rule="nonzero"/><path fill="#5b5e71" d="M 277.730469 258.929688 C 274.902344 257.695312 272.070312 256.503906 269.230469 255.347656 L 270.953125 251.074219 C 273.839844 252.226562 276.714844 253.4375 279.578125 254.691406 Z M 260.628906 252.03125 C 257.742188 250.964844 254.835938 249.945312 251.933594 248.972656 L 253.402344 244.589844 C 256.351562 245.582031 259.292969 246.617188 262.226562 247.699219 Z M 243.160156 246.183594 C 240.207031 245.300781 237.253906 244.460938 234.292969 243.660156 L 235.492188 239.203125 C 238.5 240.007812 241.496094 240.863281 244.488281 241.765625 Z M 225.367188 241.398438 C 222.375 240.703125 219.371094 240.035156 216.359375 239.429688 L 217.28125 234.902344 C 220.328125 235.523438 223.375 236.191406 226.414062 236.90625 Z M 87.964844 239.015625 L 87.164062 234.46875 C 90.242188 233.929688 93.316406 233.414062 96.386719 232.953125 L 97.070312 237.519531 C 94.046875 237.976562 91.007812 238.472656 87.964844 239.015625 Z M 207.292969 237.726562 C 204.269531 237.203125 201.234375 236.726562 198.191406 236.292969 L 198.84375 231.726562 C 201.929688 232.160156 205.007812 232.640625 208.089844 233.179688 Z M 106.21875 236.230469 L 105.632812 231.648438 C 108.734375 231.25 111.828125 230.890625 114.917969 230.566406 L 115.386719 235.164062 C 112.339844 235.472656 109.285156 235.832031 106.21875 236.230469 Z M 189.046875 235.136719 C 185.992188 234.792969 182.941406 234.496094 179.875 234.246094 L 180.253906 229.644531 C 183.367188 229.898438 186.472656 230.195312 189.570312 230.554688 Z M 124.585938 234.308594 L 124.207031 229.707031 C 127.324219 229.457031 130.429688 229.25 133.53125 229.066406 L 133.785156 233.683594 C 130.730469 233.847656 127.660156 234.054688 124.585938 234.308594 Z M 170.683594 233.621094 C 167.617188 233.46875 164.542969 233.34375 161.460938 233.261719 L 161.578125 228.644531 C 164.699219 228.726562 167.808594 228.851562 170.910156 229.003906 Z M 143.007812 233.296875 L 142.875 228.679688 C 145.996094 228.589844 149.113281 228.542969 152.21875 228.535156 L 152.234375 233.152344 C 149.167969 233.164062 146.085938 233.207031 143.007812 233.296875 Z M 143.007812 233.296875 " fill-opacity="1" fill-rule="nonzero"/><path fill="#5b5e71" d="M 290.292969 264.765625 C 288.917969 264.085938 287.546875 263.429688 286.171875 262.769531 L 288.148438 258.605469 C 289.550781 259.261719 290.949219 259.9375 292.339844 260.632812 Z M 290.292969 264.765625 " fill-opacity="1" fill-rule="nonzero"/><path fill="#c4c6c6" d="M 97.320312 172.039062 C 97.320312 183.789062 89 198.109375 78.847656 204.105469 C 73.707031 207.042969 69.058594 207.285156 65.632812 205.328125 L 57.066406 200.308594 C 60.492188 202.269531 65.140625 202.023438 70.160156 199.085938 C 80.4375 193.089844 88.632812 178.769531 88.632812 167.023438 C 88.632812 161.148438 86.554688 157.109375 83.25 155.152344 L 91.9375 160.167969 C 95.238281 162.125 97.199219 166.164062 97.320312 172.039062 Z M 97.320312 172.039062 " fill-opacity="1" fill-rule="nonzero"/><path fill="#c4c6c6" d="M 50.460938 199.085938 C 50.460938 217.078125 77.5 243.878906 78.96875 245.226562 L 70.28125 240.207031 C 68.933594 238.863281 41.773438 212.058594 41.773438 194.070312 C 41.773438 176.203125 54.496094 154.171875 70.035156 145.238281 C 77.867188 140.585938 85.085938 140.21875 90.222656 143.28125 L 98.789062 148.296875 C 93.648438 145.238281 86.554688 145.605469 78.722656 150.132812 C 63.0625 159.191406 50.339844 181.21875 50.460938 199.085938 Z M 50.460938 199.085938 " fill-opacity="1" fill-rule="nonzero"/><path fill="#ecf0f1" d="M 78.667969 150.191406 C 94.289062 141.167969 107.0625 148.449219 107.113281 166.316406 C 107.164062 184.273438 80.347656 242.222656 78.9375 245.273438 C 77.511719 243.859375 50.453125 217.027344 50.402344 199.070312 C 50.351562 181.199219 63.121094 159.167969 78.667969 150.191406 Z M 78.820312 204.0625 C 89.050781 198.152344 97.304688 183.761719 97.273438 172 C 97.238281 160.328125 88.929688 155.59375 78.699219 161.503906 C 68.542969 167.367188 60.210938 181.710938 60.246094 193.382812 C 60.277344 205.148438 68.664062 209.925781 78.820312 204.0625 " fill-opacity="1" fill-rule="nonzero"/><path fill="#5b5e71" d="M 256.046875 98.167969 L 251.5 97.359375 C 251.777344 95.832031 252.066406 94.308594 252.367188 92.785156 L 256.894531 93.667969 C 256.601562 95.175781 256.3125 96.679688 256.046875 98.167969 Z M 256.046875 98.167969 " fill-opacity="1" fill-rule="nonzero"/><path fill="#5b5e71" d="M 275.007812 236.960938 C 273.34375 234.425781 271.746094 231.84375 270.226562 229.230469 L 274.214844 226.902344 C 275.695312 229.445312 277.246094 231.953125 278.867188 234.414062 Z M 265.878906 221.25 C 264.503906 218.550781 263.199219 215.820312 261.96875 213.042969 L 266.1875 211.164062 C 267.382812 213.871094 268.648438 216.53125 269.988281 219.15625 Z M 258.515625 204.628906 C 257.453125 201.804688 256.457031 198.9375 255.546875 196.03125 L 259.945312 194.644531 C 260.835938 197.476562 261.796875 200.253906 262.835938 203.003906 Z M 253.042969 187.292969 C 252.300781 184.378906 251.625 181.429688 251.019531 178.4375 L 255.546875 177.515625 C 256.132812 180.4375 256.789062 183.316406 257.515625 186.15625 Z M 249.464844 169.5 C 249.023438 166.53125 248.652344 163.527344 248.351562 160.488281 L 252.949219 160.039062 C 253.242188 163.003906 253.601562 165.9375 254.027344 168.8125 Z M 247.679688 151.433594 C 247.519531 148.457031 247.433594 145.4375 247.414062 142.378906 L 252.027344 142.34375 C 252.050781 145.328125 252.136719 148.277344 252.285156 151.199219 Z M 252.15625 133.476562 L 247.539062 133.316406 C 247.640625 130.339844 247.804688 127.316406 248.03125 124.269531 L 252.636719 124.613281 C 252.410156 127.605469 252.25 130.554688 252.15625 133.476562 Z M 253.46875 115.773438 L 248.878906 115.269531 C 249.207031 112.3125 249.59375 109.316406 250.035156 106.296875 L 254.609375 106.960938 C 254.164062 109.929688 253.785156 112.871094 253.46875 115.773438 Z M 253.46875 115.773438 " fill-opacity="1" fill-rule="nonzero"/><path fill="#5b5e71" d="M 283.035156 248.1875 C 282.078125 246.953125 281.140625 245.714844 280.226562 244.460938 L 283.960938 241.738281 C 284.847656 242.957031 285.757812 244.15625 286.6875 245.355469 Z M 283.035156 248.1875 " fill-opacity="1" fill-rule="nonzero"/><path fill="#cc4444" d="M 310.179688 196.515625 C 310.179688 208.265625 301.859375 222.582031 291.703125 228.578125 C 286.566406 231.519531 281.914062 231.761719 278.488281 229.804688 L 269.925781 224.785156 C 273.351562 226.746094 278 226.5 283.015625 223.5625 C 293.292969 217.566406 301.492188 203.246094 301.492188 191.496094 C 301.492188 185.625 299.410156 181.585938 296.109375 179.625 L 304.792969 184.644531 C 308.097656 186.601562 310.054688 190.640625 310.179688 196.515625 Z M 310.179688 196.515625 " fill-opacity="1" fill-rule="nonzero"/><path fill="#5b5e71" d="M 290.371094 261.878906 C 290.363281 261.863281 289.652344 260.742188 288.300781 258.710938 L 292.171875 256.132812 C 293.570312 258.238281 294.304688 259.398438 294.304688 259.398438 Z M 290.371094 261.878906 " fill-opacity="1" fill-rule="nonzero"/><path fill="#5b5e71" d="M 283.816406 252.183594 C 282.472656 250.257812 280.921875 248.082031 279.191406 245.703125 L 282.941406 242.964844 C 284.703125 245.375 286.265625 247.574219 287.628906 249.519531 Z M 274.449219 239.292969 C 272.929688 237.273438 271.304688 235.15625 269.59375 232.953125 L 273.269531 230.101562 C 274.992188 232.328125 276.621094 234.460938 278.152344 236.492188 Z M 264.652344 226.691406 C 263.039062 224.683594 261.363281 222.621094 259.617188 220.511719 L 263.199219 217.546875 C 264.960938 219.679688 266.65625 221.757812 268.28125 223.789062 Z M 254.496094 214.402344 C 252.804688 212.425781 251.066406 210.417969 249.265625 208.382812 L 252.742188 205.304688 C 254.558594 207.355469 256.3125 209.386719 258.019531 211.386719 Z M 243.957031 202.441406 C 242.195312 200.507812 240.390625 198.554688 238.542969 196.597656 L 241.917969 193.40625 C 243.792969 195.386719 245.613281 197.359375 247.390625 199.320312 Z M 233.027344 190.84375 C 231.1875 188.960938 229.3125 187.074219 227.414062 185.183594 L 230.683594 181.886719 C 232.609375 183.792969 234.5 185.699219 236.351562 187.597656 Z M 221.699219 179.640625 C 219.792969 177.824219 217.851562 176.007812 215.878906 174.203125 L 219.015625 170.777344 C 221.011719 172.605469 222.96875 174.433594 224.90625 176.277344 Z M 209.957031 168.898438 C 207.976562 167.160156 205.964844 165.433594 203.925781 163.722656 L 206.902344 160.160156 C 208.976562 161.890625 211.015625 163.644531 213.027344 165.40625 Z M 197.785156 158.699219 C 195.722656 157.046875 193.636719 155.421875 191.527344 153.824219 L 194.339844 150.117188 C 196.476562 151.738281 198.59375 153.394531 200.6875 155.066406 Z M 185.144531 149.105469 C 182.988281 147.5625 180.820312 146.046875 178.628906 144.5625 L 181.230469 140.714844 C 183.453125 142.21875 185.667969 143.757812 187.851562 145.324219 Z M 171.988281 140.21875 C 169.75 138.804688 167.492188 137.421875 165.207031 136.089844 L 167.566406 132.082031 C 169.878906 133.445312 172.1875 134.847656 174.46875 136.292969 Z M 158.304688 132.191406 C 155.976562 130.929688 153.632812 129.71875 151.265625 128.554688 L 153.308594 124.382812 C 155.734375 125.574219 158.140625 126.816406 160.511719 128.105469 Z M 144.089844 125.191406 C 141.671875 124.117188 139.238281 123.101562 136.789062 122.140625 L 138.480469 117.8125 C 140.992188 118.796875 143.488281 119.84375 145.964844 120.941406 Z M 144.089844 125.191406 " fill-opacity="1" fill-rule="nonzero"/><path fill="#5b5e71" d="M 129.433594 119.453125 C 128.230469 119.042969 127.019531 118.648438 125.800781 118.269531 L 127.195312 113.835938 C 128.441406 114.226562 129.679688 114.632812 130.929688 115.054688 Z M 129.433594 119.453125 " fill-opacity="1" fill-rule="nonzero"/><path fill="#cc4444" d="M 263.320312 223.5625 C 263.320312 241.554688 290.359375 268.355469 291.824219 269.703125 L 283.140625 264.683594 C 281.792969 263.335938 254.632812 236.535156 254.632812 218.546875 C 254.632812 200.675781 267.355469 178.648438 282.894531 169.714844 C 290.726562 165.0625 297.941406 164.695312 303.082031 167.753906 L 311.644531 172.773438 C 306.507812 169.714844 299.410156 170.082031 291.582031 174.609375 C 275.921875 183.664062 263.195312 205.695312 263.320312 223.5625 Z M 263.320312 223.5625 " fill-opacity="1" fill-rule="nonzero"/><path fill="#e74c3c" d="M 291.523438 174.664062 C 307.148438 165.644531 319.921875 172.925781 319.972656 190.792969 C 320.023438 208.75 293.207031 266.699219 291.792969 269.75 C 290.371094 268.335938 263.3125 241.5 263.261719 223.542969 C 263.210938 205.675781 275.980469 183.644531 291.523438 174.664062 Z M 291.675781 228.539062 C 301.910156 222.628906 310.164062 208.238281 310.128906 196.476562 C 310.097656 184.804688 301.789062 180.070312 291.558594 185.980469 C 281.402344 191.84375 273.070312 206.1875 273.101562 217.859375 C 273.136719 229.621094 281.523438 234.402344 291.675781 228.539062 " fill-opacity="1" fill-rule="nonzero"/><path fill="#9b59b6" d="M 149.378906 51.035156 C 149.378906 62.785156 141.058594 77.105469 130.902344 83.101562 C 125.765625 86.039062 121.117188 86.28125 117.691406 84.324219 L 109.125 79.304688 C 112.550781 81.265625 117.199219 81.019531 122.21875 78.082031 C 132.492188 72.085938 140.691406 57.769531 140.691406 46.019531 C 140.691406 40.144531 138.613281 36.105469 135.308594 34.148438 L 143.996094 39.164062 C 147.296875 41.125 149.257812 45.160156 149.378906 51.035156 Z M 149.378906 51.035156 " fill-opacity="1" fill-rule="nonzero"/><path fill="#9b59b6" d="M 102.519531 78.082031 C 102.519531 96.074219 129.558594 122.875 131.027344 124.222656 L 122.339844 119.203125 C 120.992188 117.859375 93.832031 91.054688 93.832031 73.066406 C 93.832031 55.199219 106.554688 33.167969 122.09375 24.234375 C 129.925781 19.585938 137.144531 19.214844 142.28125 22.277344 L 150.847656 27.292969 C 145.707031 24.234375 138.609375 24.601562 130.78125 29.128906 C 115.121094 38.1875 102.394531 60.214844 102.519531 78.082031 Z M 102.519531 78.082031 " fill-opacity="1" fill-rule="nonzero"/><path fill="#7d5193" d="M 130.726562 29.1875 C 146.347656 20.164062 159.121094 27.445312 159.171875 45.3125 C 159.222656 63.269531 132.40625 121.21875 130.996094 124.269531 C 129.570312 122.855469 102.511719 96.023438 102.460938 78.066406 C 102.410156 60.199219 115.179688 38.164062 130.726562 29.1875 Z M 130.878906 83.058594 C 141.109375 77.148438 149.363281 62.757812 149.332031 50.996094 C 149.296875 39.324219 140.988281 34.589844 130.757812 40.5 C 120.601562 46.363281 112.269531 60.707031 112.304688 72.378906 C 112.335938 84.144531 120.722656 88.921875 130.878906 83.058594 " fill-opacity="1" fill-rule="nonzero"/><path fill="#d6b218" d="M 272.597656 32.765625 C 272.597656 44.515625 264.277344 58.835938 254.121094 64.832031 C 248.984375 67.769531 244.332031 68.011719 240.90625 66.054688 L 232.34375 61.039062 C 235.769531 62.996094 240.417969 62.75 245.433594 59.8125 C 255.710938 53.816406 263.910156 39.5 263.910156 27.75 C 263.910156 21.875 261.828125 17.835938 258.527344 15.878906 L 267.210938 20.894531 C 270.515625 22.855469 272.472656 26.894531 272.597656 32.765625 Z M 272.597656 32.765625 " fill-opacity="1" fill-rule="nonzero"/><path fill="#d6b218" d="M 225.738281 59.8125 C 225.738281 77.804688 252.777344 104.605469 254.242188 105.953125 L 245.558594 100.933594 C 244.210938 99.589844 217.050781 72.785156 217.050781 54.796875 C 217.050781 36.929688 229.773438 14.898438 245.3125 5.964844 C 253.144531 1.316406 260.359375 0.949219 265.5 4.007812 L 274.0625 9.023438 C 268.925781 5.964844 261.828125 6.332031 254 10.859375 C 238.339844 19.917969 225.613281 41.945312 225.738281 59.8125 Z M 225.738281 59.8125 " fill-opacity="1" fill-rule="nonzero"/><path fill="#f1c40f" d="M 253.941406 10.917969 C 269.566406 1.894531 282.339844 9.175781 282.390625 27.042969 C 282.441406 45 255.625 102.949219 254.210938 106 C 252.789062 104.589844 225.730469 77.753906 225.679688 59.796875 C 225.628906 41.929688 238.398438 19.894531 253.941406 10.917969 Z M 254.09375 64.789062 C 264.328125 58.878906 272.582031 44.492188 272.546875 32.726562 C 272.515625 21.054688 264.207031 16.320312 253.976562 22.230469 C 243.820312 28.09375 235.488281 42.441406 235.519531 54.113281 C 235.554688 65.875 243.941406 70.652344 254.09375 64.789062 " fill-opacity="1" fill-rule="nonzero"/></svg>