<svg xmlns="http://www.w3.org/2000/svg" xmlns:xlink="http://www.w3.org/1999/xlink" width="500" zoomAndPan="magnify" viewBox="0 0 375 374.999991" height="500" preserveAspectRatio="xMidYMid meet" version="1.0"><defs><clipPath id="a05044ab8a"><path d="M 301.035156 375 L 73.957031 375 C 33.113281 375 0 341.886719 0 301.042969 L 0 73.957031 C 0 33.113281 33.105469 0 73.957031 0 L 301.035156 0 C 341.875 0 374.992188 33.113281 374.992188 73.957031 L 374.992188 301.035156 C 375 341.886719 341.886719 375 301.035156 375 Z M 301.035156 375 " clip-rule="evenodd"/></clipPath><linearGradient x1="8.782431" gradientTransform="matrix(0.0972208, 0, 0, -0.0972208, -0.855538, 327.894861)" y1="3372.66547" x2="3865.982311" gradientUnits="userSpaceOnUse" y2="-484.534422" id="bfa4ced543"><stop stop-opacity="1" stop-color="rgb(49.398804%, 74.099731%, 25.898743%)" offset="0"/><stop stop-opacity="1" stop-color="rgb(49.363708%, 74.108887%, 26.048279%)" offset="0.0625"/><stop stop-opacity="1" stop-color="rgb(49.272156%, 74.133301%, 26.443481%)" offset="0.0664062"/><stop stop-opacity="1" stop-color="rgb(49.215698%, 74.14856%, 26.690674%)" offset="0.0703125"/><stop stop-opacity="1" stop-color="rgb(49.159241%, 74.163818%, 26.93634%)" offset="0.0742188"/><stop stop-opacity="1" stop-color="rgb(49.102783%, 74.180603%, 27.182007%)" offset="0.078125"/><stop stop-opacity="1" stop-color="rgb(49.0448%, 74.195862%, 27.427673%)" offset="0.0820313"/><stop stop-opacity="1" stop-color="rgb(48.988342%, 74.211121%, 27.674866%)" offset="0.0859375"/><stop stop-opacity="1" stop-color="rgb(48.930359%, 74.226379%, 27.920532%)" offset="0.0898438"/><stop stop-opacity="1" stop-color="rgb(48.873901%, 74.241638%, 28.166199%)" offset="0.09375"/><stop stop-opacity="1" stop-color="rgb(48.815918%, 74.256897%, 28.411865%)" offset="0.0976563"/><stop stop-opacity="1" stop-color="rgb(48.75946%, 74.272156%, 28.659058%)" offset="0.101562"/><stop stop-opacity="1" stop-color="rgb(48.703003%, 74.287415%, 28.904724%)" offset="0.105469"/><stop stop-opacity="1" stop-color="rgb(48.646545%, 74.304199%, 29.150391%)" offset="0.109375"/><stop stop-opacity="1" stop-color="rgb(48.588562%, 74.319458%, 29.396057%)" offset="0.113281"/><stop stop-opacity="1" stop-color="rgb(48.532104%, 74.334717%, 29.641724%)" offset="0.117188"/><stop stop-opacity="1" stop-color="rgb(48.474121%, 74.349976%, 29.88739%)" offset="0.121094"/><stop stop-opacity="1" stop-color="rgb(48.417664%, 74.365234%, 30.134583%)" offset="0.125"/><stop stop-opacity="1" stop-color="rgb(48.361206%, 74.380493%, 30.380249%)" offset="0.128906"/><stop stop-opacity="1" stop-color="rgb(48.304749%, 74.395752%, 30.625916%)" offset="0.132812"/><stop stop-opacity="1" stop-color="rgb(48.246765%, 74.411011%, 30.871582%)" offset="0.136719"/><stop stop-opacity="1" stop-color="rgb(48.190308%, 74.427795%, 31.118774%)" offset="0.140625"/><stop stop-opacity="1" stop-color="rgb(48.132324%, 74.443054%, 31.364441%)" offset="0.144531"/><stop stop-opacity="1" stop-color="rgb(48.075867%, 74.458313%, 31.610107%)" offset="0.148438"/><stop stop-opacity="1" stop-color="rgb(48.019409%, 74.473572%, 31.855774%)" offset="0.152344"/><stop stop-opacity="1" stop-color="rgb(47.962952%, 74.488831%, 32.102966%)" offset="0.15625"/><stop stop-opacity="1" stop-color="rgb(47.904968%, 74.504089%, 32.348633%)" offset="0.160156"/><stop stop-opacity="1" stop-color="rgb(47.848511%, 74.519348%, 32.594299%)" offset="0.164063"/><stop stop-opacity="1" stop-color="rgb(47.790527%, 74.534607%, 32.839966%)" offset="0.167969"/><stop stop-opacity="1" stop-color="rgb(47.73407%, 74.551392%, 33.087158%)" offset="0.171875"/><stop stop-opacity="1" stop-color="rgb(47.677612%, 74.56665%, 33.332825%)" offset="0.175781"/><stop stop-opacity="1" stop-color="rgb(47.621155%, 74.581909%, 33.578491%)" offset="0.179688"/><stop stop-opacity="1" stop-color="rgb(47.563171%, 74.597168%, 33.824158%)" offset="0.183594"/><stop stop-opacity="1" stop-color="rgb(47.506714%, 74.612427%, 34.069824%)" offset="0.1875"/><stop stop-opacity="1" stop-color="rgb(47.44873%, 74.627686%, 34.315491%)" offset="0.191406"/><stop stop-opacity="1" stop-color="rgb(47.392273%, 74.642944%, 34.562683%)" offset="0.195312"/><stop stop-opacity="1" stop-color="rgb(47.335815%, 74.658203%, 34.80835%)" offset="0.199219"/><stop stop-opacity="1" stop-color="rgb(47.279358%, 74.674988%, 35.054016%)" offset="0.203125"/><stop stop-opacity="1" stop-color="rgb(47.221375%, 74.690247%, 35.299683%)" offset="0.207031"/><stop stop-opacity="1" stop-color="rgb(47.164917%, 74.705505%, 35.546875%)" offset="0.210938"/><stop stop-opacity="1" stop-color="rgb(47.106934%, 74.720764%, 35.792542%)" offset="0.214844"/><stop stop-opacity="1" stop-color="rgb(47.050476%, 74.736023%, 36.038208%)" offset="0.21875"/><stop stop-opacity="1" stop-color="rgb(46.994019%, 74.751282%, 36.283875%)" offset="0.222656"/><stop stop-opacity="1" stop-color="rgb(46.937561%, 74.766541%, 36.531067%)" offset="0.226563"/><stop stop-opacity="1" stop-color="rgb(46.879578%, 74.781799%, 36.776733%)" offset="0.230469"/><stop stop-opacity="1" stop-color="rgb(46.82312%, 74.798584%, 37.0224%)" offset="0.234375"/><stop stop-opacity="1" stop-color="rgb(46.765137%, 74.813843%, 37.268066%)" offset="0.238281"/><stop stop-opacity="1" stop-color="rgb(46.708679%, 74.829102%, 37.513733%)" offset="0.242188"/><stop stop-opacity="1" stop-color="rgb(46.652222%, 74.84436%, 37.759399%)" offset="0.246094"/><stop stop-opacity="1" stop-color="rgb(46.595764%, 74.859619%, 38.006592%)" offset="0.25"/><stop stop-opacity="1" stop-color="rgb(46.537781%, 74.874878%, 38.252258%)" offset="0.253906"/><stop stop-opacity="1" stop-color="rgb(46.481323%, 74.891663%, 38.497925%)" offset="0.257813"/><stop stop-opacity="1" stop-color="rgb(46.42334%, 74.906921%, 38.743591%)" offset="0.261719"/><stop stop-opacity="1" stop-color="rgb(46.366882%, 74.92218%, 38.990784%)" offset="0.265625"/><stop stop-opacity="1" stop-color="rgb(46.310425%, 74.937439%, 39.23645%)" offset="0.269531"/><stop stop-opacity="1" stop-color="rgb(46.253967%, 74.952698%, 39.482117%)" offset="0.273438"/><stop stop-opacity="1" stop-color="rgb(46.195984%, 74.967957%, 39.727783%)" offset="0.277344"/><stop stop-opacity="1" stop-color="rgb(46.139526%, 74.983215%, 39.974976%)" offset="0.28125"/><stop stop-opacity="1" stop-color="rgb(46.081543%, 74.998474%, 40.220642%)" offset="0.285156"/><stop stop-opacity="1" stop-color="rgb(46.025085%, 75.015259%, 40.466309%)" offset="0.289062"/><stop stop-opacity="1" stop-color="rgb(45.968628%, 75.030518%, 40.711975%)" offset="0.292969"/><stop stop-opacity="1" stop-color="rgb(45.91217%, 75.045776%, 40.957642%)" offset="0.296875"/><stop stop-opacity="1" stop-color="rgb(45.854187%, 75.061035%, 41.203308%)" offset="0.300781"/><stop stop-opacity="1" stop-color="rgb(45.797729%, 75.076294%, 41.4505%)" offset="0.304688"/><stop stop-opacity="1" stop-color="rgb(45.739746%, 75.091553%, 41.696167%)" offset="0.308594"/><stop stop-opacity="1" stop-color="rgb(45.683289%, 75.106812%, 41.941833%)" offset="0.3125"/><stop stop-opacity="1" stop-color="rgb(45.626831%, 75.12207%, 42.1875%)" offset="0.316406"/><stop stop-opacity="1" stop-color="rgb(45.570374%, 75.138855%, 42.434692%)" offset="0.320313"/><stop stop-opacity="1" stop-color="rgb(45.51239%, 75.154114%, 42.680359%)" offset="0.324219"/><stop stop-opacity="1" stop-color="rgb(45.455933%, 75.169373%, 42.926025%)" offset="0.328125"/><stop stop-opacity="1" stop-color="rgb(45.397949%, 75.184631%, 43.171692%)" offset="0.332031"/><stop stop-opacity="1" stop-color="rgb(45.341492%, 75.19989%, 43.418884%)" offset="0.335938"/><stop stop-opacity="1" stop-color="rgb(45.285034%, 75.215149%, 43.664551%)" offset="0.339844"/><stop stop-opacity="1" stop-color="rgb(45.228577%, 75.230408%, 43.910217%)" offset="0.34375"/><stop stop-opacity="1" stop-color="rgb(45.170593%, 75.245667%, 44.155884%)" offset="0.347656"/><stop stop-opacity="1" stop-color="rgb(45.114136%, 75.262451%, 44.40155%)" offset="0.351562"/><stop stop-opacity="1" stop-color="rgb(45.056152%, 75.27771%, 44.647217%)" offset="0.355469"/><stop stop-opacity="1" stop-color="rgb(44.999695%, 75.292969%, 44.894409%)" offset="0.359375"/><stop stop-opacity="1" stop-color="rgb(44.943237%, 75.308228%, 45.140076%)" offset="0.363281"/><stop stop-opacity="1" stop-color="rgb(44.88678%, 75.323486%, 45.385742%)" offset="0.367188"/><stop stop-opacity="1" stop-color="rgb(44.828796%, 75.338745%, 45.631409%)" offset="0.371094"/><stop stop-opacity="1" stop-color="rgb(44.772339%, 75.354004%, 45.878601%)" offset="0.375"/><stop stop-opacity="1" stop-color="rgb(44.714355%, 75.369263%, 46.124268%)" offset="0.378906"/><stop stop-opacity="1" stop-color="rgb(44.657898%, 75.386047%, 46.369934%)" offset="0.382813"/><stop stop-opacity="1" stop-color="rgb(44.60144%, 75.401306%, 46.615601%)" offset="0.386719"/><stop stop-opacity="1" stop-color="rgb(44.544983%, 75.416565%, 46.862793%)" offset="0.390625"/><stop stop-opacity="1" stop-color="rgb(44.487%, 75.431824%, 47.108459%)" offset="0.394531"/><stop stop-opacity="1" stop-color="rgb(44.430542%, 75.447083%, 47.354126%)" offset="0.398438"/><stop stop-opacity="1" stop-color="rgb(44.372559%, 75.462341%, 47.599792%)" offset="0.402344"/><stop stop-opacity="1" stop-color="rgb(44.316101%, 75.4776%, 47.846985%)" offset="0.40625"/><stop stop-opacity="1" stop-color="rgb(44.258118%, 75.492859%, 48.092651%)" offset="0.410156"/><stop stop-opacity="1" stop-color="rgb(44.20166%, 75.509644%, 48.338318%)" offset="0.414062"/><stop stop-opacity="1" stop-color="rgb(44.145203%, 75.524902%, 48.583984%)" offset="0.417969"/><stop stop-opacity="1" stop-color="rgb(44.088745%, 75.540161%, 48.829651%)" offset="0.421875"/><stop stop-opacity="1" stop-color="rgb(44.030762%, 75.55542%, 49.075317%)" offset="0.425781"/><stop stop-opacity="1" stop-color="rgb(43.974304%, 75.570679%, 49.32251%)" offset="0.429688"/><stop stop-opacity="1" stop-color="rgb(43.916321%, 75.585938%, 49.568176%)" offset="0.433594"/><stop stop-opacity="1" stop-color="rgb(43.859863%, 75.602722%, 49.813843%)" offset="0.4375"/><stop stop-opacity="1" stop-color="rgb(43.803406%, 75.617981%, 50.059509%)" offset="0.441406"/><stop stop-opacity="1" stop-color="rgb(43.746948%, 75.63324%, 50.306702%)" offset="0.445312"/><stop stop-opacity="1" stop-color="rgb(43.688965%, 75.648499%, 50.552368%)" offset="0.449219"/><stop stop-opacity="1" stop-color="rgb(43.632507%, 75.663757%, 50.798035%)" offset="0.453125"/><stop stop-opacity="1" stop-color="rgb(43.574524%, 75.679016%, 51.043701%)" offset="0.457031"/><stop stop-opacity="1" stop-color="rgb(43.518066%, 75.694275%, 51.290894%)" offset="0.460938"/><stop stop-opacity="1" stop-color="rgb(43.461609%, 75.709534%, 51.53656%)" offset="0.464844"/><stop stop-opacity="1" stop-color="rgb(43.405151%, 75.726318%, 51.782227%)" offset="0.46875"/><stop stop-opacity="1" stop-color="rgb(43.347168%, 75.741577%, 52.027893%)" offset="0.472656"/><stop stop-opacity="1" stop-color="rgb(43.29071%, 75.756836%, 52.27356%)" offset="0.476562"/><stop stop-opacity="1" stop-color="rgb(43.232727%, 75.772095%, 52.519226%)" offset="0.480469"/><stop stop-opacity="1" stop-color="rgb(43.17627%, 75.787354%, 52.766418%)" offset="0.484375"/><stop stop-opacity="1" stop-color="rgb(43.119812%, 75.802612%, 53.012085%)" offset="0.488281"/><stop stop-opacity="1" stop-color="rgb(43.063354%, 75.817871%, 53.257751%)" offset="0.492188"/><stop stop-opacity="1" stop-color="rgb(43.005371%, 75.83313%, 53.503418%)" offset="0.496094"/><stop stop-opacity="1" stop-color="rgb(42.948914%, 75.849915%, 53.75061%)" offset="0.5"/><stop stop-opacity="1" stop-color="rgb(42.89093%, 75.865173%, 53.996277%)" offset="0.503906"/><stop stop-opacity="1" stop-color="rgb(42.834473%, 75.880432%, 54.241943%)" offset="0.507812"/><stop stop-opacity="1" stop-color="rgb(42.778015%, 75.895691%, 54.48761%)" offset="0.511719"/><stop stop-opacity="1" stop-color="rgb(42.721558%, 75.91095%, 54.734802%)" offset="0.515625"/><stop stop-opacity="1" stop-color="rgb(42.663574%, 75.926208%, 54.980469%)" offset="0.519531"/><stop stop-opacity="1" stop-color="rgb(42.607117%, 75.941467%, 55.226135%)" offset="0.523437"/><stop stop-opacity="1" stop-color="rgb(42.549133%, 75.956726%, 55.471802%)" offset="0.527344"/><stop stop-opacity="1" stop-color="rgb(42.492676%, 75.973511%, 55.717468%)" offset="0.53125"/><stop stop-opacity="1" stop-color="rgb(42.436218%, 75.98877%, 55.963135%)" offset="0.535156"/><stop stop-opacity="1" stop-color="rgb(42.379761%, 76.004028%, 56.210327%)" offset="0.539062"/><stop stop-opacity="1" stop-color="rgb(42.321777%, 76.019287%, 56.455994%)" offset="0.542969"/><stop stop-opacity="1" stop-color="rgb(42.26532%, 76.034546%, 56.70166%)" offset="0.546875"/><stop stop-opacity="1" stop-color="rgb(42.207336%, 76.049805%, 56.947327%)" offset="0.550781"/><stop stop-opacity="1" stop-color="rgb(42.150879%, 76.065063%, 57.194519%)" offset="0.554688"/><stop stop-opacity="1" stop-color="rgb(42.094421%, 76.080322%, 57.440186%)" offset="0.558594"/><stop stop-opacity="1" stop-color="rgb(42.037964%, 76.097107%, 57.685852%)" offset="0.5625"/><stop stop-opacity="1" stop-color="rgb(41.97998%, 76.112366%, 57.931519%)" offset="0.566406"/><stop stop-opacity="1" stop-color="rgb(41.923523%, 76.127625%, 58.178711%)" offset="0.570312"/><stop stop-opacity="1" stop-color="rgb(41.86554%, 76.142883%, 58.424377%)" offset="0.574219"/><stop stop-opacity="1" stop-color="rgb(41.809082%, 76.158142%, 58.670044%)" offset="0.578125"/><stop stop-opacity="1" stop-color="rgb(41.752625%, 76.173401%, 58.91571%)" offset="0.582031"/><stop stop-opacity="1" stop-color="rgb(41.696167%, 76.18866%, 59.162903%)" offset="0.585938"/><stop stop-opacity="1" stop-color="rgb(41.638184%, 76.203918%, 59.408569%)" offset="0.589844"/><stop stop-opacity="1" stop-color="rgb(41.581726%, 76.220703%, 59.654236%)" offset="0.59375"/><stop stop-opacity="1" stop-color="rgb(41.523743%, 76.235962%, 59.899902%)" offset="0.597656"/><stop stop-opacity="1" stop-color="rgb(41.467285%, 76.251221%, 60.145569%)" offset="0.601562"/><stop stop-opacity="1" stop-color="rgb(41.410828%, 76.266479%, 60.391235%)" offset="0.605469"/><stop stop-opacity="1" stop-color="rgb(41.35437%, 76.281738%, 60.638428%)" offset="0.609375"/><stop stop-opacity="1" stop-color="rgb(41.296387%, 76.296997%, 60.884094%)" offset="0.613281"/><stop stop-opacity="1" stop-color="rgb(41.239929%, 76.313782%, 61.129761%)" offset="0.617188"/><stop stop-opacity="1" stop-color="rgb(41.181946%, 76.329041%, 61.375427%)" offset="0.621094"/><stop stop-opacity="1" stop-color="rgb(41.125488%, 76.344299%, 61.62262%)" offset="0.625"/><stop stop-opacity="1" stop-color="rgb(41.069031%, 76.359558%, 61.868286%)" offset="0.628906"/><stop stop-opacity="1" stop-color="rgb(41.012573%, 76.374817%, 62.113953%)" offset="0.632813"/><stop stop-opacity="1" stop-color="rgb(40.95459%, 76.390076%, 62.359619%)" offset="0.636719"/><stop stop-opacity="1" stop-color="rgb(40.898132%, 76.405334%, 62.606812%)" offset="0.640625"/><stop stop-opacity="1" stop-color="rgb(40.840149%, 76.420593%, 62.852478%)" offset="0.644531"/><stop stop-opacity="1" stop-color="rgb(40.783691%, 76.437378%, 63.098145%)" offset="0.648438"/><stop stop-opacity="1" stop-color="rgb(40.727234%, 76.452637%, 63.343811%)" offset="0.652344"/><stop stop-opacity="1" stop-color="rgb(40.670776%, 76.467896%, 63.589478%)" offset="0.65625"/><stop stop-opacity="1" stop-color="rgb(40.612793%, 76.483154%, 63.835144%)" offset="0.660156"/><stop stop-opacity="1" stop-color="rgb(40.556335%, 76.498413%, 64.082336%)" offset="0.664063"/><stop stop-opacity="1" stop-color="rgb(40.498352%, 76.513672%, 64.328003%)" offset="0.667969"/><stop stop-opacity="1" stop-color="rgb(40.441895%, 76.528931%, 64.573669%)" offset="0.671875"/><stop stop-opacity="1" stop-color="rgb(40.385437%, 76.544189%, 64.819336%)" offset="0.675781"/><stop stop-opacity="1" stop-color="rgb(40.328979%, 76.560974%, 65.066528%)" offset="0.679688"/><stop stop-opacity="1" stop-color="rgb(40.270996%, 76.576233%, 65.312195%)" offset="0.683594"/><stop stop-opacity="1" stop-color="rgb(40.214539%, 76.591492%, 65.557861%)" offset="0.6875"/><stop stop-opacity="1" stop-color="rgb(40.156555%, 76.60675%, 65.803528%)" offset="0.691406"/><stop stop-opacity="1" stop-color="rgb(40.100098%, 76.622009%, 66.05072%)" offset="0.695312"/><stop stop-opacity="1" stop-color="rgb(40.04364%, 76.637268%, 66.296387%)" offset="0.699219"/><stop stop-opacity="1" stop-color="rgb(39.987183%, 76.652527%, 66.542053%)" offset="0.703125"/><stop stop-opacity="1" stop-color="rgb(39.929199%, 76.667786%, 66.78772%)" offset="0.707031"/><stop stop-opacity="1" stop-color="rgb(39.872742%, 76.68457%, 67.033386%)" offset="0.710938"/><stop stop-opacity="1" stop-color="rgb(39.814758%, 76.699829%, 67.279053%)" offset="0.714844"/><stop stop-opacity="1" stop-color="rgb(39.758301%, 76.715088%, 67.526245%)" offset="0.71875"/><stop stop-opacity="1" stop-color="rgb(39.700317%, 76.730347%, 67.771912%)" offset="0.722656"/><stop stop-opacity="1" stop-color="rgb(39.64386%, 76.745605%, 68.017578%)" offset="0.726562"/><stop stop-opacity="1" stop-color="rgb(39.587402%, 76.760864%, 68.263245%)" offset="0.730469"/><stop stop-opacity="1" stop-color="rgb(39.530945%, 76.776123%, 68.510437%)" offset="0.734375"/><stop stop-opacity="1" stop-color="rgb(39.472961%, 76.791382%, 68.756104%)" offset="0.738281"/><stop stop-opacity="1" stop-color="rgb(39.416504%, 76.808167%, 69.00177%)" offset="0.742188"/><stop stop-opacity="1" stop-color="rgb(39.358521%, 76.823425%, 69.247437%)" offset="0.746094"/><stop stop-opacity="1" stop-color="rgb(39.302063%, 76.838684%, 69.494629%)" offset="0.75"/><stop stop-opacity="1" stop-color="rgb(39.245605%, 76.853943%, 69.740295%)" offset="0.753906"/><stop stop-opacity="1" stop-color="rgb(39.189148%, 76.869202%, 69.985962%)" offset="0.757813"/><stop stop-opacity="1" stop-color="rgb(39.131165%, 76.88446%, 70.231628%)" offset="0.761719"/><stop stop-opacity="1" stop-color="rgb(39.074707%, 76.899719%, 70.477295%)" offset="0.765625"/><stop stop-opacity="1" stop-color="rgb(39.016724%, 76.914978%, 70.722961%)" offset="0.769531"/><stop stop-opacity="1" stop-color="rgb(38.960266%, 76.931763%, 70.970154%)" offset="0.773438"/><stop stop-opacity="1" stop-color="rgb(38.903809%, 76.947021%, 71.21582%)" offset="0.777344"/><stop stop-opacity="1" stop-color="rgb(38.847351%, 76.96228%, 71.461487%)" offset="0.78125"/><stop stop-opacity="1" stop-color="rgb(38.789368%, 76.977539%, 71.707153%)" offset="0.785156"/><stop stop-opacity="1" stop-color="rgb(38.73291%, 76.992798%, 71.954346%)" offset="0.789063"/><stop stop-opacity="1" stop-color="rgb(38.674927%, 77.008057%, 72.200012%)" offset="0.792969"/><stop stop-opacity="1" stop-color="rgb(38.618469%, 77.024841%, 72.445679%)" offset="0.796875"/><stop stop-opacity="1" stop-color="rgb(38.562012%, 77.0401%, 72.691345%)" offset="0.800781"/><stop stop-opacity="1" stop-color="rgb(38.505554%, 77.055359%, 72.938538%)" offset="0.804688"/><stop stop-opacity="1" stop-color="rgb(38.447571%, 77.070618%, 73.184204%)" offset="0.808594"/><stop stop-opacity="1" stop-color="rgb(38.391113%, 77.085876%, 73.429871%)" offset="0.8125"/><stop stop-opacity="1" stop-color="rgb(38.33313%, 77.101135%, 73.675537%)" offset="0.816406"/><stop stop-opacity="1" stop-color="rgb(38.276672%, 77.116394%, 73.922729%)" offset="0.820312"/><stop stop-opacity="1" stop-color="rgb(38.220215%, 77.131653%, 74.168396%)" offset="0.824219"/><stop stop-opacity="1" stop-color="rgb(38.163757%, 77.148438%, 74.414062%)" offset="0.828125"/><stop stop-opacity="1" stop-color="rgb(38.105774%, 77.163696%, 74.659729%)" offset="0.832031"/><stop stop-opacity="1" stop-color="rgb(38.049316%, 77.178955%, 74.905396%)" offset="0.835938"/><stop stop-opacity="1" stop-color="rgb(37.991333%, 77.194214%, 75.151062%)" offset="0.839844"/><stop stop-opacity="1" stop-color="rgb(37.934875%, 77.209473%, 75.398254%)" offset="0.84375"/><stop stop-opacity="1" stop-color="rgb(37.878418%, 77.224731%, 75.643921%)" offset="0.847656"/><stop stop-opacity="1" stop-color="rgb(37.82196%, 77.23999%, 75.889587%)" offset="0.851562"/><stop stop-opacity="1" stop-color="rgb(37.763977%, 77.255249%, 76.135254%)" offset="0.855469"/><stop stop-opacity="1" stop-color="rgb(37.70752%, 77.272034%, 76.382446%)" offset="0.859375"/><stop stop-opacity="1" stop-color="rgb(37.649536%, 77.287292%, 76.628113%)" offset="0.863281"/><stop stop-opacity="1" stop-color="rgb(37.593079%, 77.302551%, 76.873779%)" offset="0.867188"/><stop stop-opacity="1" stop-color="rgb(37.536621%, 77.31781%, 77.119446%)" offset="0.871094"/><stop stop-opacity="1" stop-color="rgb(37.480164%, 77.333069%, 77.366638%)" offset="0.875"/><stop stop-opacity="1" stop-color="rgb(37.42218%, 77.348328%, 77.612305%)" offset="0.878906"/><stop stop-opacity="1" stop-color="rgb(37.365723%, 77.363586%, 77.857971%)" offset="0.882812"/><stop stop-opacity="1" stop-color="rgb(37.307739%, 77.378845%, 78.103638%)" offset="0.886719"/><stop stop-opacity="1" stop-color="rgb(37.251282%, 77.39563%, 78.349304%)" offset="0.890625"/><stop stop-opacity="1" stop-color="rgb(37.194824%, 77.410889%, 78.594971%)" offset="0.894531"/><stop stop-opacity="1" stop-color="rgb(37.138367%, 77.426147%, 78.842163%)" offset="0.898438"/><stop stop-opacity="1" stop-color="rgb(37.080383%, 77.441406%, 79.08783%)" offset="0.902344"/><stop stop-opacity="1" stop-color="rgb(37.023926%, 77.456665%, 79.333496%)" offset="0.90625"/><stop stop-opacity="1" stop-color="rgb(36.965942%, 77.471924%, 79.579163%)" offset="0.910156"/><stop stop-opacity="1" stop-color="rgb(36.909485%, 77.487183%, 79.826355%)" offset="0.914063"/><stop stop-opacity="1" stop-color="rgb(36.853027%, 77.502441%, 80.072021%)" offset="0.917969"/><stop stop-opacity="1" stop-color="rgb(36.79657%, 77.519226%, 80.317688%)" offset="0.921875"/><stop stop-opacity="1" stop-color="rgb(36.738586%, 77.534485%, 80.563354%)" offset="0.925781"/><stop stop-opacity="1" stop-color="rgb(36.682129%, 77.549744%, 80.810547%)" offset="0.929688"/><stop stop-opacity="1" stop-color="rgb(36.624146%, 77.565002%, 81.056213%)" offset="0.933594"/><stop stop-opacity="1" stop-color="rgb(36.567688%, 77.580261%, 81.30188%)" offset="0.9375"/><stop stop-opacity="1" stop-color="rgb(36.532593%, 77.589417%, 81.44989%)" offset="1"/></linearGradient></defs><g clip-path="url(#a05044ab8a)"><rect x="-37.5" fill="url(#bfa4ced543)" width="450" y="-37.499999" height="449.999989"/></g><path fill="#ffffff" d="M 217.734375 80.207031 L 240.835938 91.601562 L 263.945312 80.207031 L 240.835938 68.765625 Z M 240.835938 98.269531 C 240.347656 98.269531 239.882812 98.164062 239.433594 97.949219 L 209.199219 83.046875 C 208.121094 82.519531 207.441406 81.414062 207.429688 80.21875 C 207.429688 79.011719 208.109375 77.921875 209.191406 77.386719 L 239.425781 62.414062 C 240.308594 61.976562 241.351562 61.976562 242.226562 62.414062 L 272.460938 77.386719 C 273.539062 77.921875 274.222656 79.019531 274.222656 80.21875 C 274.222656 81.421875 273.53125 82.511719 272.453125 83.046875 L 242.226562 97.949219 C 241.796875 98.164062 241.320312 98.269531 240.835938 98.269531 Z M 240.835938 98.269531 " fill-opacity="1" fill-rule="evenodd"/><path fill="#ffffff" d="M 240.835938 137.363281 C 240.328125 137.363281 239.824219 137.238281 239.367188 137.003906 L 209.140625 121.148438 C 208.101562 120.601562 207.449219 119.523438 207.449219 118.355469 L 207.449219 80.21875 C 207.449219 78.476562 208.867188 77.066406 210.609375 77.066406 C 212.351562 77.066406 213.769531 78.484375 213.769531 80.226562 L 213.769531 116.460938 L 237.695312 129.011719 L 237.695312 95.128906 C 237.695312 93.390625 239.105469 91.972656 240.855469 91.972656 C 242.59375 91.972656 244.015625 93.390625 244.015625 95.128906 L 244.015625 134.222656 C 244.015625 135.320312 243.429688 136.351562 242.488281 136.925781 C 241.972656 137.21875 241.410156 137.363281 240.835938 137.363281 Z M 240.835938 137.363281 " fill-opacity="1" fill-rule="evenodd"/><path fill="#ffffff" d="M 240.835938 137.363281 C 239.707031 137.363281 238.609375 136.75 238.046875 135.691406 C 237.226562 134.15625 237.8125 132.238281 239.359375 131.421875 L 267.910156 116.265625 L 267.910156 80.207031 C 267.910156 78.46875 269.332031 77.058594 271.0625 77.058594 C 272.800781 77.058594 274.222656 78.476562 274.222656 80.21875 L 274.222656 118.171875 C 274.222656 119.339844 273.570312 120.417969 272.546875 120.960938 L 242.324219 137.003906 C 241.847656 137.257812 241.332031 137.363281 240.835938 137.363281 Z M 240.835938 137.363281 " fill-opacity="1" fill-rule="evenodd"/><path fill="#ffffff" d="M 134.144531 95.109375 Z M 111.328125 81.96875 L 109.683594 107.671875 L 131.09375 93.351562 L 132.785156 67.644531 Z M 106.125 117.003906 C 105.582031 117.003906 105.039062 116.867188 104.550781 116.585938 C 103.511719 115.992188 102.898438 114.847656 102.976562 113.652344 L 105.132812 80.003906 C 105.191406 79.019531 105.71875 78.125 106.535156 77.574219 L 134.613281 58.828125 C 135.605469 58.167969 136.898438 58.117188 137.9375 58.722656 C 138.976562 59.324219 139.589844 60.460938 139.503906 61.65625 L 137.296875 95.316406 C 137.226562 96.296875 136.710938 97.191406 135.90625 97.734375 L 107.886719 116.480469 C 107.351562 116.832031 106.738281 117.003906 106.125 117.003906 Z M 106.125 117.003906 " fill-opacity="1" fill-rule="evenodd"/><path fill="#ffffff" d="M 139.121094 136.050781 C 138.578125 136.050781 138.023438 135.914062 137.546875 135.632812 L 104.5625 116.585938 C 103.042969 115.710938 102.527344 113.789062 103.402344 112.28125 C 104.277344 110.773438 106.203125 110.25 107.710938 111.125 L 139.054688 129.207031 L 161.890625 114.757812 L 132.589844 97.851562 C 131.074219 96.976562 130.558594 95.050781 131.421875 93.546875 C 132.296875 92.039062 134.234375 91.515625 135.738281 92.390625 L 169.5625 111.902344 C 170.515625 112.457031 171.117188 113.464844 171.136719 114.574219 C 171.15625 115.671875 170.601562 116.714844 169.667969 117.304688 L 140.816406 135.566406 C 140.289062 135.886719 139.707031 136.050781 139.121094 136.050781 Z M 139.121094 136.050781 " fill-opacity="1" fill-rule="evenodd"/><path fill="#ffffff" d="M 167.96875 117.792969 C 167.929688 117.792969 167.890625 117.792969 167.851562 117.792969 C 166.113281 117.734375 164.75 116.265625 164.808594 114.527344 L 165.996094 82.238281 L 134.777344 64.203125 C 133.261719 63.328125 132.746094 61.40625 133.621094 59.898438 C 134.496094 58.390625 136.421875 57.867188 137.9375 58.742188 L 170.796875 77.71875 C 171.808594 78.3125 172.421875 79.398438 172.371094 80.578125 L 171.117188 114.757812 C 171.058594 116.449219 169.667969 117.792969 167.96875 117.792969 Z M 167.96875 117.792969 " fill-opacity="1" fill-rule="evenodd"/><path fill="#ffffff" d="M 58.039062 200.644531 L 79.457031 214.964844 L 77.804688 189.257812 L 56.347656 174.9375 Z M 83.015625 224.296875 C 82.40625 224.296875 81.792969 224.121094 81.265625 223.761719 L 53.246094 205.019531 C 52.429688 204.476562 51.914062 203.582031 51.847656 202.597656 L 49.640625 168.949219 C 49.5625 167.746094 50.164062 166.605469 51.207031 166.015625 C 52.238281 165.410156 53.53125 165.460938 54.53125 166.121094 L 82.597656 184.867188 C 83.414062 185.410156 83.941406 186.3125 84 187.296875 L 86.148438 220.945312 C 86.226562 222.148438 85.613281 223.277344 84.574219 223.878906 C 84.105469 224.160156 83.5625 224.296875 83.015625 224.296875 Z M 83.015625 224.296875 " fill-opacity="1" fill-rule="evenodd"/><path fill="#ffffff" d="M 83.027344 224.296875 C 81.929688 224.296875 80.878906 223.734375 80.285156 222.714844 C 79.410156 221.195312 79.933594 219.273438 81.441406 218.40625 L 112.835938 200.324219 L 111.734375 173.324219 L 82.433594 190.230469 C 80.917969 191.105469 78.992188 190.582031 78.117188 189.074219 C 77.242188 187.566406 77.757812 185.632812 79.273438 184.769531 L 113.097656 165.257812 C 114.050781 164.703125 115.234375 164.691406 116.199219 165.226562 C 117.171875 165.761719 117.792969 166.753906 117.832031 167.871094 L 119.210938 201.996094 C 119.269531 203.164062 118.65625 204.28125 117.636719 204.855469 L 84.59375 223.898438 C 84.105469 224.171875 83.550781 224.308594 83.027344 224.296875 Z M 83.027344 224.296875 " fill-opacity="1" fill-rule="evenodd"/><path fill="#ffffff" d="M 52.78125 171.914062 C 51.691406 171.914062 50.632812 171.351562 50.050781 170.339844 C 49.175781 168.832031 49.691406 166.898438 51.207031 166.023438 L 84.078125 147.046875 C 85.085938 146.464844 86.339844 146.492188 87.332031 147.105469 L 116.375 165.304688 C 117.851562 166.226562 118.296875 168.183594 117.375 169.660156 C 116.449219 171.136719 114.496094 171.585938 113.019531 170.652344 L 85.59375 153.464844 L 54.367188 171.496094 C 53.859375 171.78125 53.324219 171.914062 52.78125 171.914062 Z M 52.78125 171.914062 " fill-opacity="1" fill-rule="evenodd"/><path fill="#ffffff" d="M 111.046875 294.792969 L 134.15625 306.234375 L 157.265625 294.792969 L 134.15625 283.398438 Z M 134.144531 312.914062 C 133.667969 312.914062 133.191406 312.808594 132.746094 312.585938 L 102.519531 297.613281 C 101.441406 297.078125 100.757812 295.980469 100.757812 294.78125 C 100.757812 293.585938 101.449219 292.488281 102.527344 291.953125 L 132.765625 277.050781 C 133.648438 276.613281 134.679688 276.613281 135.554688 277.050781 L 165.789062 291.953125 C 166.871094 292.480469 167.550781 293.585938 167.550781 294.78125 C 167.550781 295.980469 166.871094 297.078125 165.789062 297.613281 L 135.566406 312.585938 C 135.097656 312.796875 134.632812 312.914062 134.144531 312.914062 Z M 134.144531 312.914062 " fill-opacity="1" fill-rule="evenodd"/><path fill="#ffffff" d="M 164.382812 297.941406 C 162.640625 297.941406 161.222656 296.523438 161.222656 294.792969 L 161.222656 258.558594 L 137.296875 246.007812 L 137.296875 279.878906 C 137.296875 281.621094 135.875 283.039062 134.136719 283.039062 C 132.394531 283.039062 130.976562 281.621094 130.976562 279.878906 L 130.976562 240.785156 C 130.976562 239.6875 131.558594 238.65625 132.503906 238.082031 C 133.453125 237.511719 134.632812 237.480469 135.605469 237.996094 L 165.839844 253.863281 C 166.878906 254.40625 167.53125 255.488281 167.53125 256.652344 L 167.53125 294.792969 C 167.539062 296.53125 166.132812 297.941406 164.382812 297.941406 Z M 164.382812 297.941406 " fill-opacity="1" fill-rule="evenodd"/><path fill="#ffffff" d="M 103.910156 297.941406 C 102.167969 297.941406 100.75 296.523438 100.75 294.792969 L 100.75 256.828125 C 100.75 255.660156 101.390625 254.582031 102.421875 254.039062 L 132.65625 237.988281 C 134.195312 237.171875 136.109375 237.753906 136.925781 239.300781 C 137.742188 240.835938 137.160156 242.75 135.613281 243.566406 L 107.058594 258.722656 L 107.058594 294.78125 C 107.070312 296.53125 105.648438 297.941406 103.910156 297.941406 Z M 103.910156 297.941406 " fill-opacity="1" fill-rule="evenodd"/><path fill="#ffffff" d="M 243.886719 281.640625 L 242.195312 307.34375 L 263.652344 293.023438 L 265.296875 267.316406 Z M 238.617188 316.675781 C 238.074219 316.675781 237.53125 316.542969 237.042969 316.257812 C 236.003906 315.65625 235.390625 314.519531 235.476562 313.324219 L 237.695312 279.675781 C 237.761719 278.691406 238.277344 277.808594 239.085938 277.253906 L 267.105469 258.511719 C 268.105469 257.847656 269.390625 257.800781 270.429688 258.402344 C 271.46875 258.996094 272.082031 260.144531 272.003906 261.339844 L 269.855469 294.976562 C 269.796875 295.960938 269.273438 296.863281 268.457031 297.40625 L 240.378906 316.140625 C 239.851562 316.503906 239.230469 316.675781 238.617188 316.675781 Z M 238.617188 316.675781 " fill-opacity="1" fill-rule="evenodd"/><path fill="#ffffff" d="M 240.835938 283.039062 C 240.300781 283.039062 239.757812 282.902344 239.261719 282.621094 L 205.4375 263.109375 C 204.484375 262.554688 203.882812 261.542969 203.863281 260.433594 C 203.84375 259.328125 204.398438 258.296875 205.332031 257.703125 L 234.195312 239.445312 C 235.1875 238.8125 236.441406 238.792969 237.460938 239.378906 L 270.457031 258.421875 C 271.964844 259.296875 272.492188 261.222656 271.617188 262.738281 C 270.742188 264.246094 268.804688 264.769531 267.296875 263.894531 L 235.964844 245.8125 L 213.128906 260.261719 L 242.429688 277.167969 C 243.945312 278.042969 244.460938 279.964844 243.585938 281.484375 C 242.992188 282.476562 241.925781 283.039062 240.835938 283.039062 Z M 240.835938 283.039062 " fill-opacity="1" fill-rule="evenodd"/><path fill="#ffffff" d="M 238.617188 316.675781 C 238.082031 316.675781 237.539062 316.542969 237.042969 316.257812 L 204.183594 297.28125 C 203.171875 296.699219 202.558594 295.601562 202.609375 294.433594 L 203.863281 260.25 C 203.929688 258.511719 205.378906 257.140625 207.136719 257.207031 C 208.878906 257.265625 210.238281 258.734375 210.179688 260.472656 L 208.996094 292.761719 L 240.214844 310.796875 C 241.730469 311.671875 242.246094 313.59375 241.371094 315.113281 C 240.777344 316.113281 239.71875 316.675781 238.617188 316.675781 Z M 238.617188 316.675781 " fill-opacity="1" fill-rule="evenodd"/><path fill="#ffffff" d="M 297.175781 185.730469 L 318.632812 200.050781 L 316.941406 174.347656 L 295.523438 160.023438 Z M 322.210938 209.394531 C 321.597656 209.394531 320.984375 209.21875 320.460938 208.867188 L 292.390625 190.125 C 291.574219 189.582031 291.050781 188.6875 290.992188 187.695312 L 288.84375 154.046875 C 288.765625 152.839844 289.378906 151.714844 290.40625 151.109375 C 291.449219 150.515625 292.742188 150.554688 293.734375 151.226562 L 321.753906 169.972656 C 322.570312 170.515625 323.085938 171.410156 323.152344 172.390625 L 325.367188 206.039062 C 325.445312 207.246094 324.835938 208.382812 323.792969 208.976562 C 323.296875 209.257812 322.742188 209.394531 322.210938 209.394531 Z M 322.210938 209.394531 " fill-opacity="1" fill-rule="evenodd"/><path fill="#ffffff" d="M 260.300781 210.171875 C 259.773438 210.171875 259.238281 210.046875 258.773438 209.78125 C 257.800781 209.25 257.179688 208.257812 257.140625 207.136719 L 255.757812 173.015625 C 255.710938 171.847656 256.3125 170.738281 257.332031 170.15625 L 290.378906 151.109375 C 291.894531 150.234375 293.820312 150.761719 294.695312 152.277344 C 295.570312 153.785156 295.046875 155.71875 293.527344 156.582031 L 262.136719 174.667969 L 263.234375 201.664062 L 292.539062 184.757812 C 294.054688 183.882812 295.980469 184.410156 296.855469 185.914062 C 297.730469 187.421875 297.214844 189.355469 295.695312 190.222656 L 261.875 209.734375 C 261.386719 210.035156 260.84375 210.171875 260.300781 210.171875 Z M 260.300781 210.171875 " fill-opacity="1" fill-rule="evenodd"/><path fill="#ffffff" d="M 289.328125 228.371094 C 288.746094 228.371094 288.164062 228.207031 287.65625 227.886719 L 258.617188 209.6875 C 257.140625 208.761719 256.691406 206.816406 257.625 205.339844 C 258.550781 203.863281 260.492188 203.414062 261.980469 204.339844 L 289.40625 221.527344 L 320.625 203.492188 C 322.140625 202.617188 324.066406 203.144531 324.941406 204.648438 C 325.816406 206.15625 325.300781 208.089844 323.785156 208.964844 L 290.914062 227.953125 C 290.425781 228.234375 289.882812 228.371094 289.328125 228.371094 Z M 289.328125 228.371094 " fill-opacity="1" fill-rule="evenodd"/><path fill="#ffffff" d="M 116.90625 253.09375 C 115.808594 253.09375 114.75 252.53125 114.175781 251.519531 L 93.226562 215.238281 C 92.339844 213.730469 92.867188 211.804688 94.371094 210.929688 C 95.890625 210.054688 97.8125 210.582031 98.6875 212.085938 L 119.640625 248.371094 C 120.515625 249.875 120 251.8125 118.492188 252.6875 C 117.988281 252.957031 117.441406 253.09375 116.90625 253.09375 Z M 116.90625 253.09375 " fill-opacity="1" fill-rule="evenodd"/><path fill="#ffffff" d="M 98.097656 160.773438 C 97.5625 160.773438 97.015625 160.636719 96.519531 160.355469 C 95.003906 159.480469 94.488281 157.554688 95.363281 156.039062 L 116.316406 119.757812 C 117.191406 118.25 119.113281 117.726562 120.632812 118.597656 C 122.136719 119.472656 122.664062 121.398438 121.789062 122.917969 L 100.828125 159.199219 C 100.253906 160.210938 99.195312 160.773438 98.097656 160.773438 Z M 98.097656 160.773438 " fill-opacity="1" fill-rule="evenodd"/><path fill="#ffffff" d="M 210.601562 98.269531 L 168.6875 98.269531 C 166.949219 98.269531 165.527344 96.851562 165.527344 95.121094 C 165.527344 93.378906 166.949219 91.972656 168.6875 91.972656 L 210.601562 91.972656 C 212.339844 91.972656 213.75 93.390625 213.75 95.128906 C 213.757812 96.859375 212.351562 98.269531 210.601562 98.269531 Z M 210.601562 98.269531 " fill-opacity="1" fill-rule="evenodd"/><path fill="#ffffff" d="M 279.042969 164.488281 C 277.945312 164.488281 276.894531 163.925781 276.300781 162.914062 L 255.351562 126.628906 C 254.476562 125.125 254.992188 123.1875 256.496094 122.3125 C 258.015625 121.4375 259.9375 121.964844 260.8125 123.46875 L 281.765625 159.753906 C 282.648438 161.261719 282.117188 163.195312 280.617188 164.070312 C 280.121094 164.351562 279.578125 164.488281 279.042969 164.488281 Z M 279.042969 164.488281 " fill-opacity="1" fill-rule="evenodd"/><path fill="#ffffff" d="M 255.925781 256.808594 C 255.390625 256.808594 254.84375 256.671875 254.347656 256.390625 C 252.832031 255.515625 252.316406 253.589844 253.203125 252.074219 L 274.152344 215.847656 C 275.027344 214.34375 276.960938 213.816406 278.46875 214.691406 C 279.976562 215.566406 280.492188 217.492188 279.617188 219.007812 L 258.664062 255.234375 C 258.074219 256.253906 257.011719 256.808594 255.925781 256.808594 Z M 255.925781 256.808594 " fill-opacity="1" fill-rule="evenodd"/><path fill="#ffffff" d="M 206.292969 283.039062 L 164.382812 283.039062 C 162.632812 283.039062 161.222656 281.621094 161.222656 279.890625 C 161.222656 278.148438 162.632812 276.730469 164.382812 276.730469 L 206.292969 276.730469 C 208.03125 276.730469 209.441406 278.148438 209.441406 279.890625 C 209.453125 281.621094 208.03125 283.039062 206.292969 283.039062 Z M 206.292969 283.039062 " fill-opacity="1" fill-rule="evenodd"/><path fill="#ffffff" d="M 162.554688 230.742188 L 212.425781 230.742188 L 237.363281 187.5 L 212.425781 144.257812 L 162.554688 144.257812 L 137.617188 187.5 Z M 214.253906 237.054688 L 160.726562 237.054688 C 159.597656 237.054688 158.546875 236.449219 157.992188 235.476562 L 131.238281 189.074219 C 130.675781 188.09375 130.675781 186.898438 131.238281 185.925781 L 158.003906 139.523438 C 158.566406 138.539062 159.605469 137.945312 160.734375 137.945312 L 214.265625 137.945312 C 215.394531 137.945312 216.433594 138.550781 216.996094 139.523438 L 243.75 185.925781 C 244.316406 186.90625 244.316406 188.101562 243.75 189.074219 L 216.996094 235.476562 C 216.421875 236.449219 215.382812 237.054688 214.253906 237.054688 Z M 214.253906 237.054688 " fill-opacity="1" fill-rule="evenodd"/></svg>