<svg xmlns="http://www.w3.org/2000/svg" xmlns:xlink="http://www.w3.org/1999/xlink" width="500" zoomAndPan="magnify" viewBox="0 0 375 374.999991" height="500" preserveAspectRatio="xMidYMid meet" version="1.0"><path fill="#6a94d4" d="M 268.75 293.75 L 25 293.75 C 14.625 293.75 6.25 285.375 6.25 275 L 6.25 25 C 6.25 14.625 14.625 6.25 25 6.25 L 262.5 6.25 C 272.875 6.25 281.25 14.625 281.25 25 L 281.25 150 L 268.75 162.5 L 268.75 293.75 " fill-opacity="1" fill-rule="nonzero"/><path fill="#ffffff" d="M 37.5 268.75 C 34.058594 268.75 31.25 265.941406 31.25 262.5 L 31.25 62.5 C 31.25 59.058594 34.058594 56.25 37.5 56.25 L 250 56.25 C 253.441406 56.25 256.25 59.058594 256.25 62.5 L 256.25 268.75 L 37.5 268.75 " fill-opacity="1" fill-rule="nonzero"/><path fill="#bbdbef" d="M 281.25 243.75 L 281.25 175 C 281.25 164.648438 289.648438 156.25 300 156.25 C 310.351562 156.25 318.75 164.648438 318.75 175 L 318.75 193.75 C 318.75 200.660156 324.339844 206.25 331.25 206.25 C 338.160156 206.25 343.75 200.660156 343.75 193.75 L 343.75 175 C 343.75 150.828125 324.167969 131.25 300 131.25 C 275.828125 131.25 256.25 150.828125 256.25 175 L 256.25 243.75 L 281.25 243.75 " fill-opacity="1" fill-rule="nonzero"/><path fill="#f2674b" d="M 343.75 368.75 L 256.25 368.75 C 242.429688 368.75 231.25 357.542969 231.25 343.75 L 231.25 256.25 C 231.25 242.429688 242.429688 231.25 256.25 231.25 L 343.75 231.25 C 357.566406 231.25 368.75 242.429688 368.75 256.25 L 368.75 343.75 C 368.75 357.542969 357.566406 368.75 343.75 368.75 " fill-opacity="1" fill-rule="nonzero"/><path fill="#c04c44" d="M 313.355469 304.46875 L 317.234375 323.753906 C 318.015625 327.636719 315.0625 331.25 311.109375 331.25 L 288.890625 331.25 C 284.9375 331.25 281.980469 327.636719 282.761719 323.753906 L 286.667969 304.394531 C 287.035156 302.636719 286.667969 300.757812 285.523438 299.390625 C 282.128906 295.3125 280.46875 289.695312 281.589844 283.789062 C 283.03125 276.292969 289.304688 270.214844 296.851562 268.992188 C 308.640625 267.113281 318.75 276.097656 318.75 287.5 C 318.75 292.015625 317.136719 296.214844 314.429688 299.4375 C 313.28125 300.804688 312.988281 302.710938 313.355469 304.46875 " fill-opacity="1" fill-rule="nonzero"/><path fill="#2b2c2d" d="M 362.5 343.75 C 362.5 354.101562 354.101562 362.5 343.75 362.5 L 256.25 362.5 C 245.898438 362.5 237.5 354.101562 237.5 343.75 L 237.5 256.25 C 237.5 245.898438 245.898438 237.5 256.25 237.5 L 343.75 237.5 C 354.101562 237.5 362.5 245.898438 362.5 256.25 Z M 37.5 262.5 L 37.5 62.5 L 250 62.5 L 250 225.632812 C 235.742188 228.539062 225 241.160156 225 256.25 L 225 262.5 Z M 300 137.5 C 320.679688 137.5 337.5 154.320312 337.5 175 L 337.5 193.75 C 337.5 197.191406 334.691406 200 331.25 200 C 327.808594 200 325 197.191406 325 193.75 L 325 175 C 325 161.207031 313.792969 150 300 150 C 286.207031 150 275 161.207031 275 175 L 275 225 L 262.5 225 L 262.5 175 C 262.5 154.320312 279.320312 137.5 300 137.5 Z M 343.75 225 L 287.5 225 L 287.5 175 C 287.5 168.113281 293.113281 162.5 300 162.5 C 306.882812 162.5 312.5 168.113281 312.5 175 L 312.5 193.75 C 312.5 204.101562 320.898438 212.5 331.25 212.5 C 341.601562 212.5 350 204.101562 350 193.75 L 350 175 C 350 147.4375 327.5625 125 300 125 C 295.679688 125 291.503906 125.609375 287.5 126.660156 L 287.5 25 C 287.5 11.207031 276.292969 0 262.5 0 L 25 0 C 11.207031 0 0 11.207031 0 25 L 0 275 C 0 288.792969 11.207031 300 25 300 L 200 300 C 203.441406 300 206.25 297.191406 206.25 293.75 C 206.25 290.308594 203.441406 287.5 200 287.5 L 25 287.5 C 18.117188 287.5 12.5 281.882812 12.5 275 L 12.5 25 C 12.5 18.117188 18.117188 12.5 25 12.5 L 262.5 12.5 C 269.382812 12.5 275 18.117188 275 25 L 275 131.761719 C 270.289062 134.496094 266.089844 137.988281 262.5 142.039062 L 262.5 62.5 C 262.5 55.613281 256.882812 50 250 50 L 37.5 50 C 30.617188 50 25 55.613281 25 62.5 L 25 262.5 C 25 269.382812 30.617188 275 37.5 275 L 225 275 L 225 343.75 C 225 360.984375 239.011719 375 256.25 375 L 343.75 375 C 360.984375 375 375 360.984375 375 343.75 L 375 256.25 C 375 239.011719 360.984375 225 343.75 225 " fill-opacity="1" fill-rule="nonzero"/><path fill="#2b2c2d" d="M 307.226562 305.710938 L 311.109375 325 L 288.890625 325 L 292.796875 305.640625 C 293.554688 301.902344 292.652344 298.167969 290.332031 295.386719 C 287.964844 292.554688 287.011719 288.769531 287.742188 284.960938 C 288.671875 280.078125 292.917969 275.976562 297.851562 275.171875 C 298.582031 275.046875 299.292969 275 300 275 C 303.003906 275 305.808594 276.023438 308.105469 277.976562 C 310.886719 280.347656 312.5 283.8125 312.5 287.5 C 312.5 290.429688 311.5 293.238281 309.644531 295.410156 C 307.324219 298.191406 306.445312 301.929688 307.226562 305.710938 Z M 316.210938 268.457031 C 310.621094 263.695312 303.222656 261.644531 295.875 262.816406 C 285.765625 264.453125 277.390625 272.582031 275.464844 282.617188 C 274.023438 290.113281 275.953125 297.679688 280.542969 303.148438 L 276.636719 322.535156 C 275.902344 326.21875 276.832031 330.003906 279.222656 332.910156 C 281.589844 335.816406 285.132812 337.5 288.890625 337.5 L 311.109375 337.5 C 314.867188 337.5 318.40625 335.816406 320.777344 332.910156 C 323.167969 330.003906 324.097656 326.21875 323.363281 322.535156 L 319.457031 303.246094 C 319.457031 303.246094 319.238281 303.441406 319.238281 303.441406 C 322.949219 299.023438 325 293.359375 325 287.5 C 325 280.152344 321.800781 273.21875 316.210938 268.457031 " fill-opacity="1" fill-rule="nonzero"/><path fill="#2b2c2d" d="M 43.75 37.5 C 47.191406 37.5 50 34.691406 50 31.25 C 50 27.808594 47.191406 25 43.75 25 L 37.5 25 C 34.058594 25 31.25 27.808594 31.25 31.25 C 31.25 34.691406 34.058594 37.5 37.5 37.5 L 43.75 37.5 " fill-opacity="1" fill-rule="nonzero"/><path fill="#2b2c2d" d="M 75 37.5 C 78.441406 37.5 81.25 34.691406 81.25 31.25 C 81.25 27.808594 78.441406 25 75 25 L 68.75 25 C 65.308594 25 62.5 27.808594 62.5 31.25 C 62.5 34.691406 65.308594 37.5 68.75 37.5 L 75 37.5 " fill-opacity="1" fill-rule="nonzero"/><path fill="#2b2c2d" d="M 106.25 37.5 C 109.691406 37.5 112.5 34.691406 112.5 31.25 C 112.5 27.808594 109.691406 25 106.25 25 L 100 25 C 96.558594 25 93.75 27.808594 93.75 31.25 C 93.75 34.691406 96.558594 37.5 100 37.5 L 106.25 37.5 " fill-opacity="1" fill-rule="nonzero"/><path fill="#2b2c2d" d="M 250 37.5 C 253.441406 37.5 256.25 34.691406 256.25 31.25 C 256.25 27.808594 253.441406 25 250 25 L 212.5 25 C 209.058594 25 206.25 27.808594 206.25 31.25 C 206.25 34.691406 209.058594 37.5 212.5 37.5 L 250 37.5 " fill-opacity="1" fill-rule="nonzero"/><path fill="#2b2c2d" d="M 104.566406 120.75 C 102.222656 118.210938 98.265625 118.066406 95.75 120.433594 L 60.203125 153.515625 C 57.664062 155.882812 56.25 159.082031 56.25 162.5 C 56.25 165.917969 57.664062 169.117188 60.203125 171.484375 L 95.75 204.566406 C 96.949219 205.6875 98.484375 206.25 100 206.25 C 101.683594 206.25 103.34375 205.589844 104.566406 204.246094 C 106.933594 201.734375 106.785156 197.777344 104.246094 195.433594 L 68.726562 162.644531 L 104.246094 129.566406 C 106.785156 127.222656 106.933594 123.265625 104.566406 120.75 " fill-opacity="1" fill-rule="nonzero"/><path fill="#2b2c2d" d="M 231.25 162.5 C 231.25 159.082031 229.859375 155.882812 227.292969 153.515625 L 191.746094 120.433594 C 189.234375 118.089844 185.277344 118.210938 182.933594 120.75 C 180.566406 123.265625 180.710938 127.222656 183.25 129.566406 L 218.773438 162.351562 L 183.25 195.433594 C 180.710938 197.777344 180.566406 201.734375 182.933594 204.246094 C 184.15625 205.589844 185.816406 206.25 187.5 206.25 C 189.011719 206.25 190.550781 205.6875 191.746094 204.566406 L 227.292969 171.484375 C 229.859375 169.117188 231.25 165.917969 231.25 162.5 " fill-opacity="1" fill-rule="nonzero"/><path fill="#2b2c2d" d="M 165.308594 119.410156 C 162.207031 117.871094 158.445312 119.117188 156.910156 122.191406 L 119.410156 197.191406 C 117.871094 200.292969 119.117188 204.050781 122.191406 205.589844 C 123.09375 206.03125 124.046875 206.25 125 206.25 C 127.292969 206.25 129.492188 204.980469 130.589844 202.808594 L 168.089844 127.808594 C 169.628906 124.707031 168.382812 120.945312 165.308594 119.410156 " fill-opacity="1" fill-rule="nonzero"/></svg>