<svg xmlns="http://www.w3.org/2000/svg" xmlns:xlink="http://www.w3.org/1999/xlink" width="500" zoomAndPan="magnify" viewBox="0 0 375 374.999991" height="500" preserveAspectRatio="xMidYMid meet" version="1.0"><defs><clipPath id="22f5f82f42"><path d="M 51 0 L 339 0 L 339 248 L 51 248 Z M 51 0 " clip-rule="nonzero"/></clipPath></defs><path fill="#ff7373" d="M 271.40625 373.316406 C 270.066406 373.316406 268.695312 371.976562 267.355469 370.605469 C 195.695312 150.339844 195.695312 150.339844 195.695312 150.339844 C 122.695312 370.605469 122.695312 370.605469 122.695312 370.605469 C 122.695312 373.316406 119.984375 374.679688 118.621094 373.316406 C 115.941406 371.976562 114.570312 370.605469 115.941406 367.929688 C 191.652344 135.46875 191.652344 135.46875 191.652344 135.46875 C 191.652344 132.757812 194.355469 131.417969 195.695312 131.417969 C 197.035156 131.417969 198.40625 132.757812 199.746094 135.46875 C 275.480469 367.929688 275.480469 367.929688 275.480469 367.929688 C 276.820312 370.605469 275.480469 371.976562 272.777344 373.316406 C 272.777344 373.316406 272.777344 373.316406 271.40625 373.316406 Z M 271.40625 373.316406 " fill-opacity="1" fill-rule="nonzero"/><path fill="#ff7373" d="M 255.1875 321.972656 L 253.847656 321.972656 C 195.695312 308.472656 195.695312 308.472656 195.695312 308.472656 C 137.542969 321.972656 137.542969 321.972656 137.542969 321.972656 C 134.871094 321.972656 132.160156 320.601562 132.160156 317.925781 C 132.160156 316.5625 133.5 313.851562 134.871094 313.851562 C 176.765625 304.390625 176.765625 304.390625 176.765625 304.390625 C 142.964844 296.300781 142.964844 296.300781 142.964844 296.300781 C 141.625 296.300781 140.253906 294.929688 140.253906 292.230469 C 140.253906 290.890625 141.625 289.550781 142.964844 288.179688 C 178.105469 278.71875 178.105469 278.71875 178.105469 278.71875 C 151.089844 271.96875 151.089844 271.96875 151.089844 271.96875 C 149.71875 270.628906 148.378906 269.257812 148.378906 267.929688 C 148.378906 265.21875 149.71875 263.847656 151.089844 263.847656 C 180.816406 253.046875 180.816406 253.046875 180.816406 253.046875 C 159.183594 246.296875 159.183594 246.296875 159.183594 246.296875 C 157.84375 246.296875 156.503906 243.597656 156.503906 242.226562 C 156.503906 240.886719 157.84375 239.546875 159.183594 238.175781 C 184.890625 227.375 184.890625 227.375 184.890625 227.375 C 167.308594 220.625 167.308594 220.625 167.308594 220.625 C 165.96875 219.261719 164.597656 217.925781 164.597656 215.214844 C 165.96875 213.84375 167.308594 212.503906 170.011719 212.503906 C 221.378906 212.503906 221.378906 212.503906 221.378906 212.503906 C 224.089844 212.503906 225.453125 213.84375 225.453125 215.214844 C 226.792969 217.925781 225.453125 219.261719 224.089844 220.625 C 206.53125 227.375 206.53125 227.375 206.53125 227.375 C 232.214844 236.835938 232.214844 236.835938 232.214844 236.835938 C 233.554688 238.175781 234.917969 239.546875 233.554688 240.886719 C 233.554688 243.597656 233.554688 244.925781 230.84375 244.925781 C 207.871094 253.046875 207.871094 253.046875 207.871094 253.046875 C 240.308594 263.847656 240.308594 263.847656 240.308594 263.847656 C 241.679688 263.847656 243.011719 265.21875 243.011719 267.929688 C 243.011719 269.257812 241.679688 270.628906 240.308594 271.96875 C 211.914062 278.71875 211.914062 278.71875 211.914062 278.71875 C 248.433594 289.550781 248.433594 289.550781 248.433594 289.550781 C 249.773438 289.550781 251.136719 290.890625 251.136719 293.59375 C 251.136719 294.929688 249.773438 296.300781 248.433594 297.640625 C 215.996094 304.390625 215.996094 304.390625 215.996094 304.390625 C 256.558594 313.851562 256.558594 313.851562 256.558594 313.851562 C 257.898438 313.851562 259.230469 316.5625 259.230469 317.925781 C 259.230469 320.601562 256.558594 321.972656 255.1875 321.972656 Z M 161.886719 292.230469 C 195.695312 300.351562 195.695312 300.351562 195.695312 300.351562 C 229.503906 292.230469 229.503906 292.230469 229.503906 292.230469 C 195.695312 282.769531 195.695312 282.769531 195.695312 282.769531 Z M 167.308594 266.558594 C 195.695312 274.679688 195.695312 274.679688 195.695312 274.679688 C 224.089844 266.558594 224.089844 266.558594 224.089844 266.558594 C 194.355469 257.097656 194.355469 257.097656 194.355469 257.097656 Z M 172.722656 242.226562 C 194.355469 249.007812 194.355469 249.007812 194.355469 249.007812 C 217.335938 240.886719 217.335938 240.886719 217.335938 240.886719 C 195.695312 231.425781 195.695312 231.425781 195.695312 231.425781 Z M 190.28125 220.625 C 195.695312 221.964844 195.695312 221.964844 195.695312 221.964844 C 201.117188 220.625 201.117188 220.625 201.117188 220.625 Z M 190.28125 220.625 " fill-opacity="1" fill-rule="nonzero"/><path fill="#ff7373" d="M 217.335938 140.878906 C 217.335938 151.679688 207.871094 161.136719 195.695312 161.136719 C 183.527344 161.136719 174.0625 151.679688 174.0625 140.878906 C 174.0625 128.714844 183.527344 119.253906 195.695312 119.253906 C 207.871094 119.253906 217.335938 128.714844 217.335938 140.878906 Z M 217.335938 140.878906 " fill-opacity="1" fill-rule="nonzero"/><g clip-path="url(#22f5f82f42)"><path fill="#ff7373" d="M 294.410156 247.636719 C 293.039062 247.636719 291.699219 247.636719 291.699219 246.296875 C 290.335938 244.925781 290.335938 242.226562 291.699219 240.886719 C 317.382812 215.214844 330.898438 181.421875 330.898438 144.925781 C 330.898438 108.457031 317.382812 74.664062 291.699219 48.992188 C 266.023438 23.296875 232.214844 9.789062 195.695312 9.789062 C 159.183594 9.789062 125.40625 23.296875 99.691406 48.992188 C 46.984375 101.675781 46.984375 188.171875 99.691406 240.886719 C 101.0625 242.226562 101.0625 244.925781 99.691406 246.296875 C 98.351562 247.636719 95.640625 247.636719 94.308594 246.296875 C 37.496094 190.882812 37.496094 98.996094 94.308594 42.210938 C 121.324219 15.199219 156.503906 0.328125 195.695312 0.328125 C 233.554688 0.328125 270.066406 15.199219 297.089844 42.210938 C 324.136719 70.621094 339.023438 105.746094 339.023438 144.925781 C 339.023438 182.761719 324.136719 219.261719 297.089844 246.296875 C 297.089844 247.636719 295.75 247.636719 294.410156 247.636719 Z M 294.410156 247.636719 " fill-opacity="1" fill-rule="nonzero"/></g><path fill="#ff7373" d="M 264.652344 217.925781 C 263.3125 217.925781 261.941406 217.925781 261.941406 216.554688 C 259.230469 215.214844 259.230469 212.503906 261.941406 211.140625 C 298.460938 174.671875 298.460938 115.207031 261.941406 78.710938 C 244.382812 61.160156 220.039062 51.671875 195.695312 51.671875 C 170.011719 51.671875 147.039062 61.160156 129.449219 78.710938 C 92.9375 115.207031 92.9375 174.671875 129.449219 211.140625 C 130.789062 212.503906 130.789062 215.214844 129.449219 216.554688 C 128.078125 217.925781 125.40625 217.925781 124.035156 216.554688 C 83.472656 177.378906 83.472656 112.503906 124.035156 73.292969 C 142.964844 53.039062 168.648438 43.582031 195.695312 43.582031 C 222.75 43.582031 248.433594 53.039062 267.355469 73.292969 C 306.585938 112.503906 306.585938 177.378906 267.355469 216.554688 C 267.355469 217.925781 266.023438 217.925781 264.652344 217.925781 Z M 264.652344 217.925781 " fill-opacity="1" fill-rule="nonzero"/><path fill="#ff7373" d="M 234.917969 188.171875 C 233.554688 188.171875 232.214844 186.832031 232.214844 186.832031 C 229.503906 185.472656 229.503906 182.761719 232.214844 180.082031 C 251.136719 161.136719 251.136719 128.714844 232.214844 108.457031 C 221.378906 98.996094 209.210938 93.585938 195.695312 93.585938 C 182.1875 93.585938 168.648438 98.996094 159.183594 108.457031 C 149.71875 117.917969 144.328125 131.417969 144.328125 144.925781 C 144.328125 158.460938 149.71875 170.621094 159.183594 180.082031 C 161.886719 182.761719 161.886719 185.472656 159.183594 186.832031 C 157.84375 188.171875 155.132812 188.171875 153.792969 186.832031 C 142.964844 176.011719 136.203125 161.136719 136.203125 144.925781 C 136.203125 128.714844 142.964844 113.835938 153.792969 103.042969 C 164.597656 90.875 179.476562 85.464844 195.695312 85.464844 C 211.914062 85.464844 226.792969 90.875 237.597656 103.042969 C 260.601562 126.007812 260.601562 163.839844 237.597656 186.832031 C 236.257812 186.832031 236.257812 188.171875 234.917969 188.171875 Z M 234.917969 188.171875 " fill-opacity="1" fill-rule="nonzero"/></svg>