<svg xmlns="http://www.w3.org/2000/svg" xmlns:xlink="http://www.w3.org/1999/xlink" width="500" zoomAndPan="magnify" viewBox="0 0 375 374.999991" height="500" preserveAspectRatio="xMidYMid meet" version="1.0"><path fill="#46ccff" d="M 87.832031 19.933594 C 87.832031 20.75 87.753906 21.5625 87.59375 22.363281 C 87.433594 23.167969 87.195312 23.945312 86.882812 24.703125 C 86.570312 25.457031 86.1875 26.175781 85.734375 26.855469 C 85.277344 27.535156 84.761719 28.164062 84.183594 28.742188 C 83.605469 29.320312 82.976562 29.839844 82.296875 30.292969 C 81.613281 30.746094 80.898438 31.128906 80.140625 31.445312 C 79.386719 31.757812 78.605469 31.992188 77.804688 32.152344 C 77.003906 32.3125 76.191406 32.390625 75.375 32.390625 C 74.554688 32.390625 73.746094 32.3125 72.941406 32.152344 C 72.140625 31.992188 71.363281 31.757812 70.605469 31.445312 C 69.851562 31.128906 69.132812 30.746094 68.453125 30.292969 C 67.773438 29.839844 67.144531 29.320312 66.5625 28.742188 C 65.984375 28.164062 65.46875 27.535156 65.015625 26.855469 C 64.558594 26.175781 64.175781 25.457031 63.863281 24.703125 C 63.550781 23.945312 63.3125 23.167969 63.15625 22.363281 C 62.996094 21.5625 62.914062 20.75 62.914062 19.933594 C 62.914062 19.117188 62.996094 18.304688 63.15625 17.503906 C 63.3125 16.699219 63.550781 15.921875 63.863281 15.164062 C 64.175781 14.410156 64.558594 13.691406 65.015625 13.011719 C 65.46875 12.332031 65.984375 11.703125 66.5625 11.125 C 67.144531 10.546875 67.773438 10.027344 68.453125 9.574219 C 69.132812 9.121094 69.851562 8.738281 70.605469 8.421875 C 71.363281 8.109375 72.140625 7.875 72.941406 7.714844 C 73.746094 7.554688 74.554688 7.476562 75.375 7.476562 C 76.191406 7.476562 77.003906 7.554688 77.804688 7.714844 C 78.605469 7.875 79.386719 8.109375 80.140625 8.421875 C 80.898438 8.738281 81.613281 9.121094 82.296875 9.574219 C 82.976562 10.027344 83.605469 10.546875 84.183594 11.125 C 84.761719 11.703125 85.277344 12.332031 85.734375 13.011719 C 86.1875 13.691406 86.570312 14.410156 86.882812 15.164062 C 87.195312 15.921875 87.433594 16.699219 87.59375 17.503906 C 87.753906 18.304688 87.832031 19.117188 87.832031 19.933594 Z M 87.832031 19.933594 " fill-opacity="1" fill-rule="nonzero"/><path fill="#46ccff" d="M 312.085938 19.933594 C 312.085938 20.75 312.003906 21.5625 311.84375 22.363281 C 311.6875 23.167969 311.449219 23.945312 311.136719 24.703125 C 310.824219 25.457031 310.441406 26.175781 309.984375 26.855469 C 309.53125 27.535156 309.015625 28.164062 308.4375 28.742188 C 307.855469 29.320312 307.226562 29.839844 306.546875 30.292969 C 305.867188 30.746094 305.148438 31.128906 304.394531 31.445312 C 303.636719 31.757812 302.859375 31.992188 302.058594 32.152344 C 301.253906 32.3125 300.445312 32.390625 299.625 32.390625 C 298.808594 32.390625 297.996094 32.3125 297.195312 32.152344 C 296.394531 31.992188 295.613281 31.757812 294.859375 31.445312 C 294.101562 31.128906 293.386719 30.746094 292.703125 30.292969 C 292.023438 29.839844 291.394531 29.320312 290.816406 28.742188 C 290.238281 28.164062 289.722656 27.535156 289.265625 26.855469 C 288.8125 26.175781 288.429688 25.457031 288.117188 24.703125 C 287.804688 23.945312 287.566406 23.167969 287.40625 22.363281 C 287.246094 21.5625 287.167969 20.75 287.167969 19.933594 C 287.167969 19.117188 287.246094 18.304688 287.40625 17.503906 C 287.566406 16.699219 287.804688 15.921875 288.117188 15.164062 C 288.429688 14.410156 288.8125 13.691406 289.265625 13.011719 C 289.722656 12.332031 290.238281 11.703125 290.816406 11.125 C 291.394531 10.546875 292.023438 10.027344 292.703125 9.574219 C 293.386719 9.121094 294.101562 8.738281 294.859375 8.421875 C 295.613281 8.109375 296.394531 7.875 297.195312 7.714844 C 297.996094 7.554688 298.808594 7.476562 299.625 7.476562 C 300.445312 7.476562 301.253906 7.554688 302.058594 7.714844 C 302.859375 7.875 303.636719 8.109375 304.394531 8.421875 C 305.148438 8.738281 305.867188 9.121094 306.546875 9.574219 C 307.226562 10.027344 307.855469 10.546875 308.4375 11.125 C 309.015625 11.703125 309.53125 12.332031 309.984375 13.011719 C 310.441406 13.691406 310.824219 14.410156 311.136719 15.164062 C 311.449219 15.921875 311.6875 16.699219 311.84375 17.503906 C 312.003906 18.304688 312.085938 19.117188 312.085938 19.933594 Z M 312.085938 19.933594 " fill-opacity="1" fill-rule="nonzero"/><path fill="#323232" d="M 150.125 287.789062 L 224.875 287.789062 L 224.875 350.082031 L 150.125 350.082031 Z M 150.125 287.789062 " fill-opacity="1" fill-rule="nonzero"/><path fill="#b90000" d="M 81.601562 343.855469 L 293.398438 343.855469 L 293.398438 368.769531 L 81.601562 368.769531 Z M 81.601562 343.855469 " fill-opacity="1" fill-rule="nonzero"/><path fill="#6090bf" d="M 6.851562 57.308594 L 368.148438 57.308594 L 368.148438 294.019531 L 6.851562 294.019531 Z M 6.851562 57.308594 " fill-opacity="1" fill-rule="nonzero"/><path fill="#b90000" d="M 6.851562 269.101562 L 368.148438 269.101562 L 368.148438 294.019531 L 6.851562 294.019531 Z M 6.851562 269.101562 " fill-opacity="1" fill-rule="nonzero"/><path fill="#efaf22" d="M 56.6875 175.664062 C 56.6875 176.484375 56.605469 177.292969 56.445312 178.09375 C 56.285156 178.898438 56.050781 179.675781 55.738281 180.433594 C 55.425781 181.1875 55.039062 181.90625 54.585938 182.585938 C 54.132812 183.265625 53.617188 183.894531 53.035156 184.472656 C 52.457031 185.050781 51.828125 185.570312 51.148438 186.023438 C 50.46875 186.476562 49.75 186.863281 48.996094 187.175781 C 48.238281 187.488281 47.460938 187.722656 46.65625 187.882812 C 45.855469 188.042969 45.046875 188.121094 44.226562 188.121094 C 43.410156 188.121094 42.597656 188.042969 41.796875 187.882812 C 40.996094 187.722656 40.214844 187.488281 39.460938 187.175781 C 38.703125 186.863281 37.984375 186.476562 37.304688 186.023438 C 36.625 185.570312 35.996094 185.050781 35.417969 184.472656 C 34.839844 183.894531 34.324219 183.265625 33.867188 182.585938 C 33.414062 181.90625 33.03125 181.1875 32.71875 180.433594 C 32.40625 179.675781 32.167969 178.898438 32.007812 178.09375 C 31.847656 177.292969 31.769531 176.484375 31.769531 175.664062 C 31.769531 174.847656 31.847656 174.035156 32.007812 173.234375 C 32.167969 172.429688 32.40625 171.652344 32.71875 170.898438 C 33.03125 170.140625 33.414062 169.421875 33.867188 168.742188 C 34.324219 168.0625 34.839844 167.433594 35.417969 166.855469 C 35.996094 166.277344 36.625 165.761719 37.304688 165.304688 C 37.984375 164.851562 38.703125 164.46875 39.460938 164.152344 C 40.214844 163.839844 40.996094 163.605469 41.796875 163.445312 C 42.597656 163.285156 43.410156 163.207031 44.226562 163.207031 C 45.046875 163.207031 45.855469 163.285156 46.65625 163.445312 C 47.460938 163.605469 48.238281 163.839844 48.996094 164.15625 C 49.75 164.46875 50.46875 164.851562 51.148438 165.304688 C 51.828125 165.761719 52.457031 166.277344 53.035156 166.855469 C 53.617188 167.433594 54.132812 168.0625 54.585938 168.742188 C 55.039062 169.421875 55.425781 170.140625 55.738281 170.898438 C 56.050781 171.652344 56.285156 172.429688 56.445312 173.234375 C 56.605469 174.035156 56.6875 174.847656 56.6875 175.664062 Z M 56.6875 175.664062 " fill-opacity="1" fill-rule="nonzero"/><path fill="#efaf22" d="M 343.230469 175.664062 C 343.230469 176.484375 343.152344 177.292969 342.992188 178.09375 C 342.832031 178.898438 342.59375 179.675781 342.28125 180.433594 C 341.96875 181.1875 341.585938 181.90625 341.132812 182.585938 C 340.675781 183.265625 340.160156 183.894531 339.582031 184.472656 C 339.003906 185.050781 338.375 185.570312 337.695312 186.023438 C 337.015625 186.476562 336.296875 186.863281 335.539062 187.175781 C 334.785156 187.488281 334.003906 187.722656 333.203125 187.882812 C 332.402344 188.042969 331.589844 188.121094 330.773438 188.121094 C 329.953125 188.121094 329.144531 188.042969 328.34375 187.882812 C 327.539062 187.722656 326.761719 187.488281 326.003906 187.175781 C 325.25 186.863281 324.53125 186.476562 323.851562 186.023438 C 323.171875 185.570312 322.542969 185.050781 321.964844 184.472656 C 321.382812 183.894531 320.867188 183.265625 320.414062 182.585938 C 319.960938 181.90625 319.574219 181.1875 319.261719 180.433594 C 318.949219 179.675781 318.710938 178.898438 318.554688 178.09375 C 318.394531 177.292969 318.3125 176.484375 318.3125 175.664062 C 318.3125 174.847656 318.394531 174.035156 318.554688 173.234375 C 318.710938 172.429688 318.949219 171.652344 319.261719 170.898438 C 319.574219 170.140625 319.960938 169.421875 320.414062 168.742188 C 320.867188 168.0625 321.382812 167.433594 321.964844 166.855469 C 322.542969 166.277344 323.171875 165.761719 323.851562 165.304688 C 324.53125 164.851562 325.25 164.46875 326.003906 164.152344 C 326.761719 163.839844 327.539062 163.605469 328.34375 163.445312 C 329.144531 163.285156 329.953125 163.207031 330.773438 163.207031 C 331.589844 163.207031 332.402344 163.285156 333.203125 163.445312 C 334.003906 163.605469 334.785156 163.839844 335.539062 164.15625 C 336.296875 164.46875 337.015625 164.851562 337.695312 165.304688 C 338.375 165.761719 339.003906 166.277344 339.582031 166.855469 C 340.160156 167.433594 340.675781 168.0625 341.132812 168.742188 C 341.585938 169.421875 341.96875 170.140625 342.28125 170.898438 C 342.59375 171.652344 342.832031 172.429688 342.992188 173.234375 C 343.152344 174.035156 343.230469 174.847656 343.230469 175.664062 Z M 343.230469 175.664062 " fill-opacity="1" fill-rule="nonzero"/><path fill="#efaf22" d="M 243.5625 188.121094 L 243.5625 163.207031 L 229.296875 163.207031 C 228.453125 160.320312 227.308594 157.5625 225.871094 154.921875 L 235.964844 144.828125 L 218.644531 127.199219 L 208.554688 137.292969 C 205.816406 135.835938 202.949219 134.691406 199.957031 133.867188 L 199.957031 119.601562 L 175.042969 119.601562 L 175.042969 133.867188 C 172.15625 134.714844 169.394531 135.855469 166.757812 137.292969 L 156.664062 127.199219 L 139.035156 144.828125 L 149.128906 154.921875 C 147.691406 157.5625 146.546875 160.320312 145.703125 163.207031 L 131.4375 163.207031 L 131.4375 188.121094 L 145.703125 188.121094 C 146.546875 191.007812 147.691406 193.769531 149.128906 196.40625 L 139.035156 206.8125 L 156.664062 224.4375 L 166.757812 214.347656 C 169.394531 215.785156 172.15625 216.925781 175.042969 217.773438 L 175.042969 231.726562 L 199.957031 231.726562 L 199.957031 217.460938 C 202.84375 216.617188 205.605469 215.472656 208.242188 214.035156 L 218.644531 224.128906 L 235.964844 206.8125 L 225.871094 196.71875 C 227.332031 193.980469 228.472656 191.113281 229.296875 188.121094 Z M 243.5625 188.121094 " fill-opacity="1" fill-rule="nonzero"/><path fill="#ffd6ba" d="M 206.1875 175.664062 C 206.1875 176.277344 206.15625 176.886719 206.097656 177.496094 C 206.039062 178.105469 205.949219 178.710938 205.828125 179.308594 C 205.710938 179.910156 205.5625 180.503906 205.382812 181.089844 C 205.207031 181.675781 205 182.25 204.765625 182.816406 C 204.53125 183.382812 204.269531 183.933594 203.980469 184.472656 C 203.691406 185.011719 203.378906 185.539062 203.039062 186.046875 C 202.699219 186.554688 202.335938 187.046875 201.945312 187.519531 C 201.558594 187.992188 201.148438 188.445312 200.714844 188.878906 C 200.28125 189.3125 199.828125 189.722656 199.355469 190.109375 C 198.882812 190.5 198.390625 190.863281 197.882812 191.203125 C 197.375 191.542969 196.847656 191.855469 196.308594 192.144531 C 195.769531 192.433594 195.21875 192.695312 194.652344 192.929688 C 194.085938 193.164062 193.511719 193.371094 192.925781 193.546875 C 192.339844 193.726562 191.746094 193.875 191.144531 193.992188 C 190.546875 194.113281 189.941406 194.203125 189.332031 194.261719 C 188.722656 194.320312 188.113281 194.351562 187.5 194.351562 C 186.886719 194.351562 186.277344 194.320312 185.667969 194.261719 C 185.058594 194.203125 184.453125 194.113281 183.855469 193.992188 C 183.253906 193.875 182.660156 193.726562 182.074219 193.546875 C 181.488281 193.371094 180.914062 193.164062 180.347656 192.929688 C 179.78125 192.695312 179.230469 192.433594 178.691406 192.144531 C 178.152344 191.855469 177.625 191.542969 177.117188 191.203125 C 176.609375 190.863281 176.117188 190.5 175.644531 190.109375 C 175.171875 189.722656 174.71875 189.3125 174.285156 188.878906 C 173.851562 188.445312 173.441406 187.992188 173.054688 187.519531 C 172.664062 187.046875 172.300781 186.554688 171.960938 186.046875 C 171.621094 185.539062 171.308594 185.011719 171.019531 184.472656 C 170.730469 183.933594 170.46875 183.382812 170.234375 182.816406 C 170 182.25 169.792969 181.675781 169.617188 181.089844 C 169.4375 180.503906 169.289062 179.910156 169.171875 179.308594 C 169.050781 178.710938 168.960938 178.105469 168.902344 177.496094 C 168.84375 176.886719 168.8125 176.277344 168.8125 175.664062 C 168.8125 175.050781 168.84375 174.441406 168.902344 173.832031 C 168.960938 173.222656 169.050781 172.617188 169.171875 172.019531 C 169.289062 171.417969 169.4375 170.824219 169.617188 170.238281 C 169.792969 169.652344 170 169.078125 170.234375 168.511719 C 170.46875 167.949219 170.730469 167.394531 171.019531 166.855469 C 171.308594 166.316406 171.621094 165.789062 171.960938 165.28125 C 172.300781 164.773438 172.664062 164.28125 173.054688 163.808594 C 173.441406 163.335938 173.851562 162.882812 174.285156 162.449219 C 174.71875 162.015625 175.171875 161.605469 175.644531 161.21875 C 176.117188 160.832031 176.609375 160.464844 177.117188 160.125 C 177.625 159.785156 178.152344 159.472656 178.691406 159.183594 C 179.230469 158.894531 179.78125 158.632812 180.347656 158.398438 C 180.914062 158.164062 181.488281 157.960938 182.074219 157.78125 C 182.660156 157.605469 183.253906 157.457031 183.855469 157.335938 C 184.453125 157.214844 185.058594 157.125 185.667969 157.066406 C 186.277344 157.007812 186.886719 156.976562 187.5 156.976562 C 188.113281 156.976562 188.722656 157.007812 189.332031 157.066406 C 189.941406 157.125 190.546875 157.214844 191.144531 157.335938 C 191.746094 157.457031 192.339844 157.605469 192.925781 157.78125 C 193.511719 157.960938 194.085938 158.164062 194.652344 158.398438 C 195.21875 158.632812 195.769531 158.894531 196.308594 159.183594 C 196.847656 159.472656 197.375 159.785156 197.882812 160.125 C 198.390625 160.464844 198.882812 160.832031 199.355469 161.21875 C 199.828125 161.605469 200.28125 162.015625 200.714844 162.449219 C 201.148438 162.882812 201.558594 163.335938 201.945312 163.808594 C 202.335938 164.28125 202.699219 164.773438 203.039062 165.28125 C 203.378906 165.789062 203.691406 166.316406 203.980469 166.855469 C 204.269531 167.394531 204.53125 167.949219 204.765625 168.511719 C 205 169.078125 205.207031 169.652344 205.382812 170.238281 C 205.5625 170.824219 205.710938 171.417969 205.828125 172.019531 C 205.949219 172.617188 206.039062 173.222656 206.097656 173.832031 C 206.15625 174.441406 206.1875 175.050781 206.1875 175.664062 Z M 206.1875 175.664062 " fill-opacity="1" fill-rule="nonzero"/><path fill="#000000" d="M 368.148438 51.078125 L 224.875 51.078125 L 224.875 26.164062 L 282.058594 26.164062 C 282.300781 26.847656 282.585938 27.519531 282.90625 28.171875 C 283.226562 28.824219 283.585938 29.457031 283.980469 30.070312 C 284.375 30.683594 284.804688 31.269531 285.265625 31.828125 C 285.730469 32.390625 286.222656 32.921875 286.75 33.425781 C 287.277344 33.929688 287.828125 34.402344 288.410156 34.839844 C 288.992188 35.28125 289.59375 35.683594 290.222656 36.050781 C 290.851562 36.421875 291.5 36.75 292.164062 37.042969 C 292.832031 37.335938 293.511719 37.589844 294.210938 37.804688 C 294.90625 38.015625 295.609375 38.1875 296.328125 38.316406 C 297.042969 38.449219 297.765625 38.539062 298.492188 38.582031 C 299.21875 38.628906 299.945312 38.632812 300.671875 38.59375 C 301.398438 38.554688 302.121094 38.476562 302.839844 38.351562 C 303.554688 38.230469 304.265625 38.066406 304.960938 37.859375 C 305.660156 37.652344 306.34375 37.40625 307.015625 37.121094 C 307.683594 36.835938 308.335938 36.511719 308.964844 36.148438 C 309.597656 35.789062 310.207031 35.390625 310.792969 34.957031 C 311.378906 34.523438 311.933594 34.058594 312.464844 33.5625 C 312.996094 33.0625 313.496094 32.535156 313.964844 31.980469 C 314.4375 31.421875 314.871094 30.839844 315.273438 30.234375 C 315.671875 29.625 316.039062 28.996094 316.367188 28.347656 C 316.695312 27.695312 316.980469 27.027344 317.230469 26.34375 C 317.480469 25.660156 317.691406 24.964844 317.859375 24.257812 C 318.027344 23.550781 318.15625 22.832031 318.238281 22.109375 C 318.324219 21.386719 318.367188 20.660156 318.367188 19.933594 C 318.367188 19.207031 318.324219 18.480469 318.238281 17.757812 C 318.15625 17.035156 318.027344 16.316406 317.859375 15.609375 C 317.691406 14.902344 317.480469 14.207031 317.230469 13.523438 C 316.980469 12.839844 316.695312 12.171875 316.367188 11.519531 C 316.039062 10.871094 315.671875 10.242188 315.273438 9.632812 C 314.871094 9.027344 314.4375 8.445312 313.964844 7.886719 C 313.496094 7.332031 312.996094 6.804688 312.464844 6.304688 C 311.933594 5.808594 311.378906 5.34375 310.792969 4.910156 C 310.207031 4.476562 309.597656 4.078125 308.964844 3.71875 C 308.335938 3.355469 307.683594 3.03125 307.015625 2.746094 C 306.34375 2.460938 305.660156 2.214844 304.960938 2.007812 C 304.265625 1.800781 303.554688 1.636719 302.839844 1.515625 C 302.121094 1.390625 301.398438 1.3125 300.671875 1.273438 C 299.945312 1.234375 299.21875 1.238281 298.492188 1.285156 C 297.765625 1.328125 297.042969 1.417969 296.328125 1.546875 C 295.609375 1.679688 294.90625 1.851562 294.210938 2.0625 C 293.511719 2.277344 292.832031 2.53125 292.164062 2.824219 C 291.5 3.117188 290.851562 3.445312 290.222656 3.816406 C 289.59375 4.183594 288.992188 4.585938 288.410156 5.027344 C 287.828125 5.464844 287.277344 5.9375 286.75 6.441406 C 286.222656 6.941406 285.730469 7.476562 285.265625 8.039062 C 284.804688 8.597656 284.375 9.183594 283.980469 9.796875 C 283.585938 10.410156 283.226562 11.042969 282.90625 11.695312 C 282.585938 12.347656 282.300781 13.019531 282.058594 13.703125 L 218.644531 13.703125 C 218.238281 13.703125 217.832031 13.746094 217.429688 13.824219 C 217.03125 13.902344 216.640625 14.023438 216.261719 14.179688 C 215.882812 14.335938 215.527344 14.527344 215.183594 14.753906 C 214.84375 14.980469 214.53125 15.238281 214.242188 15.527344 C 213.953125 15.816406 213.695312 16.132812 213.464844 16.472656 C 213.238281 16.8125 213.046875 17.171875 212.890625 17.550781 C 212.734375 17.925781 212.617188 18.316406 212.535156 18.71875 C 212.457031 19.121094 212.417969 19.523438 212.417969 19.933594 L 212.417969 51.078125 L 162.582031 51.078125 L 162.582031 19.933594 C 162.582031 19.523438 162.542969 19.121094 162.464844 18.71875 C 162.382812 18.316406 162.265625 17.925781 162.109375 17.550781 C 161.953125 17.171875 161.761719 16.8125 161.535156 16.472656 C 161.304688 16.132812 161.046875 15.816406 160.757812 15.527344 C 160.46875 15.238281 160.15625 14.980469 159.816406 14.753906 C 159.472656 14.527344 159.117188 14.335938 158.738281 14.179688 C 158.359375 14.023438 157.96875 13.902344 157.570312 13.824219 C 157.167969 13.746094 156.761719 13.703125 156.355469 13.703125 L 92.941406 13.703125 C 92.699219 13.019531 92.414062 12.347656 92.09375 11.695312 C 91.773438 11.042969 91.414062 10.410156 91.019531 9.796875 C 90.625 9.183594 90.195312 8.597656 89.734375 8.039062 C 89.269531 7.476562 88.773438 6.941406 88.25 6.441406 C 87.722656 5.9375 87.171875 5.464844 86.589844 5.027344 C 86.007812 4.585938 85.40625 4.183594 84.777344 3.816406 C 84.148438 3.445312 83.5 3.117188 82.835938 2.824219 C 82.167969 2.53125 81.488281 2.277344 80.789062 2.0625 C 80.09375 1.851562 79.386719 1.679688 78.671875 1.546875 C 77.957031 1.417969 77.234375 1.328125 76.507812 1.285156 C 75.78125 1.238281 75.054688 1.234375 74.328125 1.273438 C 73.601562 1.3125 72.878906 1.390625 72.160156 1.515625 C 71.445312 1.636719 70.734375 1.800781 70.039062 2.007812 C 69.339844 2.214844 68.65625 2.460938 67.984375 2.746094 C 67.316406 3.03125 66.664062 3.355469 66.035156 3.71875 C 65.402344 4.078125 64.792969 4.476562 64.207031 4.910156 C 63.621094 5.34375 63.066406 5.808594 62.535156 6.304688 C 62.003906 6.804688 61.503906 7.332031 61.035156 7.886719 C 60.5625 8.445312 60.128906 9.027344 59.726562 9.632812 C 59.328125 10.242188 58.960938 10.871094 58.632812 11.519531 C 58.304688 12.171875 58.019531 12.839844 57.769531 13.523438 C 57.519531 14.207031 57.308594 14.902344 57.140625 15.609375 C 56.972656 16.316406 56.84375 17.035156 56.761719 17.757812 C 56.675781 18.480469 56.632812 19.207031 56.632812 19.933594 C 56.632812 20.660156 56.675781 21.386719 56.761719 22.109375 C 56.84375 22.832031 56.972656 23.550781 57.140625 24.257812 C 57.308594 24.964844 57.519531 25.660156 57.769531 26.34375 C 58.019531 27.027344 58.304688 27.695312 58.632812 28.347656 C 58.960938 28.996094 59.328125 29.625 59.726562 30.234375 C 60.128906 30.839844 60.5625 31.421875 61.035156 31.980469 C 61.503906 32.535156 62.003906 33.0625 62.535156 33.5625 C 63.066406 34.058594 63.621094 34.523438 64.207031 34.957031 C 64.792969 35.390625 65.402344 35.789062 66.035156 36.148438 C 66.664062 36.511719 67.316406 36.835938 67.984375 37.121094 C 68.65625 37.40625 69.339844 37.652344 70.039062 37.859375 C 70.734375 38.066406 71.445312 38.230469 72.160156 38.351562 C 72.878906 38.476562 73.601562 38.554688 74.328125 38.59375 C 75.054688 38.632812 75.78125 38.628906 76.507812 38.582031 C 77.234375 38.539062 77.957031 38.449219 78.671875 38.316406 C 79.386719 38.1875 80.09375 38.015625 80.789062 37.804688 C 81.488281 37.589844 82.167969 37.335938 82.835938 37.042969 C 83.5 36.75 84.148438 36.421875 84.777344 36.050781 C 85.40625 35.683594 86.007812 35.28125 86.589844 34.839844 C 87.171875 34.402344 87.722656 33.929688 88.25 33.425781 C 88.773438 32.921875 89.269531 32.390625 89.734375 31.828125 C 90.195312 31.269531 90.625 30.683594 91.019531 30.070312 C 91.414062 29.457031 91.773438 28.824219 92.09375 28.171875 C 92.414062 27.519531 92.699219 26.847656 92.941406 26.164062 L 150.125 26.164062 L 150.125 51.078125 L 6.851562 51.078125 C 6.441406 51.078125 6.039062 51.121094 5.636719 51.199219 C 5.234375 51.277344 4.847656 51.398438 4.46875 51.554688 C 4.089844 51.710938 3.730469 51.902344 3.390625 52.128906 C 3.050781 52.355469 2.738281 52.613281 2.449219 52.902344 C 2.160156 53.195312 1.898438 53.507812 1.671875 53.847656 C 1.445312 54.1875 1.253906 54.546875 1.097656 54.925781 C 0.941406 55.304688 0.824219 55.691406 0.742188 56.09375 C 0.664062 56.496094 0.621094 56.898438 0.621094 57.308594 L 0.621094 294.019531 C 0.621094 294.429688 0.664062 294.835938 0.742188 295.234375 C 0.824219 295.636719 0.941406 296.027344 1.097656 296.402344 C 1.253906 296.78125 1.445312 297.140625 1.671875 297.480469 C 1.898438 297.820312 2.160156 298.136719 2.449219 298.425781 C 2.738281 298.714844 3.050781 298.972656 3.390625 299.199219 C 3.730469 299.425781 4.089844 299.617188 4.46875 299.773438 C 4.847656 299.929688 5.234375 300.050781 5.636719 300.128906 C 6.039062 300.210938 6.441406 300.25 6.851562 300.25 L 143.894531 300.25 L 143.894531 337.625 L 81.601562 337.625 C 81.195312 337.625 80.789062 337.664062 80.386719 337.746094 C 79.988281 337.824219 79.597656 337.941406 79.21875 338.097656 C 78.839844 338.253906 78.480469 338.445312 78.140625 338.675781 C 77.800781 338.902344 77.488281 339.160156 77.199219 339.449219 C 76.910156 339.738281 76.652344 340.054688 76.421875 340.394531 C 76.195312 340.734375 76.003906 341.09375 75.847656 341.46875 C 75.691406 341.847656 75.574219 342.238281 75.492188 342.636719 C 75.414062 343.039062 75.375 343.445312 75.375 343.855469 L 75.375 368.769531 C 75.375 369.179688 75.414062 369.585938 75.492188 369.984375 C 75.574219 370.386719 75.691406 370.777344 75.847656 371.15625 C 76.003906 371.53125 76.195312 371.890625 76.421875 372.230469 C 76.652344 372.570312 76.910156 372.886719 77.199219 373.175781 C 77.488281 373.464844 77.800781 373.722656 78.140625 373.949219 C 78.480469 374.175781 78.839844 374.371094 79.21875 374.527344 C 79.597656 374.683594 79.988281 374.800781 80.386719 374.878906 C 80.789062 374.960938 81.195312 375 81.601562 375 L 293.398438 375 C 293.804688 375 294.210938 374.960938 294.613281 374.878906 C 295.011719 374.800781 295.402344 374.683594 295.78125 374.527344 C 296.160156 374.371094 296.519531 374.175781 296.859375 373.949219 C 297.199219 373.722656 297.511719 373.464844 297.800781 373.175781 C 298.089844 372.886719 298.347656 372.570312 298.578125 372.230469 C 298.804688 371.890625 298.996094 371.53125 299.152344 371.15625 C 299.308594 370.777344 299.425781 370.386719 299.507812 369.984375 C 299.585938 369.585938 299.625 369.179688 299.625 368.769531 L 299.625 343.855469 C 299.625 343.445312 299.585938 343.039062 299.507812 342.636719 C 299.425781 342.238281 299.308594 341.847656 299.152344 341.46875 C 298.996094 341.09375 298.804688 340.734375 298.578125 340.394531 C 298.347656 340.054688 298.089844 339.738281 297.800781 339.449219 C 297.511719 339.160156 297.199219 338.902344 296.859375 338.675781 C 296.519531 338.445312 296.160156 338.253906 295.78125 338.097656 C 295.402344 337.941406 295.011719 337.824219 294.613281 337.746094 C 294.210938 337.664062 293.804688 337.625 293.398438 337.625 L 231.105469 337.625 L 231.105469 300.25 L 368.148438 300.25 C 368.558594 300.25 368.960938 300.210938 369.363281 300.128906 C 369.765625 300.050781 370.152344 299.929688 370.53125 299.773438 C 370.910156 299.617188 371.269531 299.425781 371.609375 299.199219 C 371.949219 298.972656 372.261719 298.714844 372.550781 298.425781 C 372.839844 298.136719 373.101562 297.820312 373.328125 297.480469 C 373.554688 297.140625 373.746094 296.78125 373.902344 296.402344 C 374.058594 296.027344 374.175781 295.636719 374.257812 295.234375 C 374.335938 294.835938 374.378906 294.429688 374.378906 294.019531 L 374.378906 57.308594 C 374.378906 56.898438 374.335938 56.496094 374.257812 56.09375 C 374.175781 55.691406 374.058594 55.304688 373.902344 54.925781 C 373.746094 54.546875 373.554688 54.1875 373.328125 53.847656 C 373.101562 53.507812 372.839844 53.195312 372.550781 52.902344 C 372.261719 52.613281 371.949219 52.355469 371.609375 52.128906 C 371.269531 51.902344 370.910156 51.710938 370.53125 51.554688 C 370.152344 51.398438 369.765625 51.277344 369.363281 51.199219 C 368.960938 51.121094 368.558594 51.078125 368.148438 51.078125 Z M 299.625 13.703125 C 300.035156 13.703125 300.441406 13.746094 300.839844 13.824219 C 301.242188 13.902344 301.632812 14.023438 302.011719 14.179688 C 302.386719 14.335938 302.746094 14.527344 303.085938 14.753906 C 303.425781 14.980469 303.742188 15.238281 304.03125 15.527344 C 304.320312 15.816406 304.578125 16.132812 304.804688 16.472656 C 305.03125 16.8125 305.226562 17.171875 305.382812 17.550781 C 305.539062 17.925781 305.65625 18.316406 305.734375 18.71875 C 305.816406 19.121094 305.855469 19.523438 305.855469 19.933594 C 305.855469 20.34375 305.816406 20.746094 305.734375 21.148438 C 305.65625 21.550781 305.539062 21.941406 305.382812 22.316406 C 305.226562 22.695312 305.03125 23.054688 304.804688 23.394531 C 304.578125 23.734375 304.320312 24.050781 304.03125 24.339844 C 303.742188 24.628906 303.425781 24.886719 303.085938 25.113281 C 302.746094 25.339844 302.386719 25.53125 302.011719 25.6875 C 301.632812 25.84375 301.242188 25.964844 300.839844 26.042969 C 300.441406 26.121094 300.035156 26.164062 299.625 26.164062 C 299.21875 26.164062 298.8125 26.121094 298.410156 26.042969 C 298.011719 25.964844 297.621094 25.84375 297.242188 25.6875 C 296.863281 25.53125 296.503906 25.339844 296.164062 25.113281 C 295.824219 24.886719 295.511719 24.628906 295.222656 24.339844 C 294.933594 24.050781 294.675781 23.734375 294.445312 23.394531 C 294.21875 23.054688 294.027344 22.695312 293.871094 22.316406 C 293.714844 21.941406 293.597656 21.550781 293.515625 21.148438 C 293.4375 20.746094 293.398438 20.34375 293.398438 19.933594 C 293.398438 19.523438 293.4375 19.121094 293.515625 18.71875 C 293.597656 18.316406 293.714844 17.925781 293.871094 17.550781 C 294.027344 17.171875 294.21875 16.8125 294.445312 16.472656 C 294.675781 16.132812 294.933594 15.816406 295.222656 15.527344 C 295.511719 15.238281 295.824219 14.980469 296.164062 14.753906 C 296.503906 14.527344 296.863281 14.335938 297.242188 14.179688 C 297.621094 14.023438 298.011719 13.902344 298.410156 13.824219 C 298.8125 13.746094 299.21875 13.703125 299.625 13.703125 Z M 75.375 26.164062 C 74.964844 26.164062 74.558594 26.121094 74.160156 26.042969 C 73.757812 25.964844 73.367188 25.84375 72.988281 25.6875 C 72.613281 25.53125 72.253906 25.339844 71.914062 25.113281 C 71.574219 24.886719 71.257812 24.628906 70.96875 24.339844 C 70.679688 24.050781 70.421875 23.734375 70.195312 23.394531 C 69.96875 23.054688 69.773438 22.695312 69.617188 22.316406 C 69.460938 21.941406 69.34375 21.550781 69.265625 21.148438 C 69.183594 20.746094 69.144531 20.34375 69.144531 19.933594 C 69.144531 19.523438 69.183594 19.121094 69.265625 18.71875 C 69.34375 18.316406 69.460938 17.925781 69.617188 17.550781 C 69.773438 17.171875 69.96875 16.8125 70.195312 16.472656 C 70.421875 16.132812 70.679688 15.816406 70.96875 15.527344 C 71.257812 15.238281 71.574219 14.980469 71.914062 14.753906 C 72.253906 14.527344 72.613281 14.335938 72.988281 14.179688 C 73.367188 14.023438 73.757812 13.902344 74.160156 13.824219 C 74.558594 13.746094 74.964844 13.703125 75.375 13.703125 C 75.78125 13.703125 76.1875 13.746094 76.589844 13.824219 C 76.988281 13.902344 77.378906 14.023438 77.757812 14.179688 C 78.136719 14.335938 78.496094 14.527344 78.835938 14.753906 C 79.175781 14.980469 79.488281 15.238281 79.777344 15.527344 C 80.066406 15.816406 80.324219 16.132812 80.554688 16.472656 C 80.78125 16.8125 80.972656 17.171875 81.128906 17.550781 C 81.285156 17.925781 81.402344 18.316406 81.484375 18.71875 C 81.5625 19.121094 81.601562 19.523438 81.601562 19.933594 C 81.601562 20.34375 81.5625 20.746094 81.484375 21.148438 C 81.402344 21.550781 81.285156 21.941406 81.128906 22.316406 C 80.972656 22.695312 80.78125 23.054688 80.554688 23.394531 C 80.324219 23.734375 80.066406 24.050781 79.777344 24.339844 C 79.488281 24.628906 79.175781 24.886719 78.835938 25.113281 C 78.496094 25.339844 78.136719 25.53125 77.757812 25.6875 C 77.378906 25.84375 76.988281 25.964844 76.589844 26.042969 C 76.1875 26.121094 75.78125 26.164062 75.375 26.164062 Z M 212.417969 63.539062 L 212.417969 124.335938 L 206.933594 129.753906 L 206.1875 129.445312 L 206.1875 119.601562 C 206.1875 119.191406 206.148438 118.789062 206.066406 118.386719 C 205.988281 117.984375 205.871094 117.59375 205.714844 117.21875 C 205.558594 116.839844 205.363281 116.480469 205.136719 116.140625 C 204.910156 115.800781 204.652344 115.484375 204.363281 115.195312 C 204.074219 114.90625 203.757812 114.648438 203.417969 114.421875 C 203.078125 114.195312 202.71875 114.003906 202.34375 113.847656 C 201.964844 113.691406 201.574219 113.570312 201.171875 113.492188 C 200.773438 113.410156 200.367188 113.371094 199.957031 113.371094 L 175.042969 113.371094 C 174.632812 113.371094 174.226562 113.410156 173.828125 113.492188 C 173.425781 113.570312 173.035156 113.691406 172.65625 113.847656 C 172.28125 114.003906 171.921875 114.195312 171.582031 114.421875 C 171.242188 114.648438 170.925781 114.90625 170.636719 115.195312 C 170.347656 115.484375 170.089844 115.800781 169.863281 116.140625 C 169.636719 116.480469 169.441406 116.839844 169.285156 117.21875 C 169.128906 117.59375 169.011719 117.984375 168.933594 118.386719 C 168.851562 118.789062 168.8125 119.191406 168.8125 119.601562 L 168.8125 129.445312 L 168.066406 129.753906 L 162.582031 124.335938 L 162.582031 63.539062 Z M 220.390625 157.910156 C 221.621094 160.175781 222.59375 162.539062 223.316406 165.011719 C 223.519531 165.675781 223.820312 166.285156 224.222656 166.847656 C 224.628906 167.410156 225.109375 167.890625 225.675781 168.289062 C 226.238281 168.691406 226.851562 168.988281 227.515625 169.183594 C 228.179688 169.382812 228.855469 169.464844 229.546875 169.433594 L 237.332031 169.433594 L 237.332031 181.894531 L 229.296875 181.894531 C 228.605469 181.863281 227.929688 181.949219 227.265625 182.144531 C 226.601562 182.339844 225.988281 182.636719 225.425781 183.039062 C 224.863281 183.4375 224.378906 183.917969 223.972656 184.480469 C 223.570312 185.042969 223.269531 185.65625 223.070312 186.316406 C 222.347656 188.789062 221.371094 191.15625 220.140625 193.417969 C 219.859375 194.007812 219.675781 194.625 219.59375 195.273438 C 219.507812 195.921875 219.523438 196.566406 219.640625 197.210938 C 219.757812 197.851562 219.96875 198.460938 220.277344 199.039062 C 220.589844 199.613281 220.976562 200.128906 221.449219 200.582031 L 227.117188 206.25 L 218.644531 215.28125 L 212.417969 209.613281 C 211.941406 209.136719 211.398438 208.746094 210.796875 208.441406 C 210.191406 208.140625 209.554688 207.941406 208.886719 207.847656 C 208.21875 207.75 207.550781 207.761719 206.886719 207.886719 C 206.222656 208.007812 205.597656 208.230469 205.003906 208.554688 C 202.742188 209.785156 200.375 210.757812 197.902344 211.484375 C 197.242188 211.683594 196.628906 211.984375 196.066406 212.386719 C 195.503906 212.792969 195.023438 213.277344 194.625 213.839844 C 194.222656 214.402344 193.925781 215.015625 193.730469 215.679688 C 193.535156 216.34375 193.449219 217.019531 193.480469 217.710938 L 193.480469 225.5 L 181.269531 225.5 L 181.269531 217.460938 C 181.300781 216.773438 181.21875 216.09375 181.019531 215.429688 C 180.824219 214.769531 180.527344 214.15625 180.125 213.589844 C 179.726562 213.027344 179.246094 212.542969 178.683594 212.140625 C 178.121094 211.734375 177.511719 211.433594 176.847656 211.234375 C 174.375 210.511719 172.007812 209.535156 169.746094 208.304688 C 169.15625 207.980469 168.527344 207.757812 167.863281 207.636719 C 167.199219 207.515625 166.53125 207.5 165.863281 207.597656 C 165.195312 207.691406 164.558594 207.890625 163.953125 208.195312 C 163.351562 208.496094 162.8125 208.886719 162.332031 209.363281 L 156.664062 215.03125 L 147.882812 206.8125 L 153.550781 201.140625 C 154.027344 200.664062 154.417969 200.125 154.722656 199.519531 C 155.023438 198.917969 155.222656 198.28125 155.316406 197.613281 C 155.414062 196.945312 155.402344 196.277344 155.28125 195.613281 C 155.160156 194.949219 154.933594 194.320312 154.609375 193.730469 C 153.378906 191.464844 152.40625 189.097656 151.683594 186.628906 C 151.480469 185.964844 151.179688 185.355469 150.777344 184.792969 C 150.371094 184.230469 149.890625 183.75 149.324219 183.347656 C 148.761719 182.949219 148.148438 182.652344 147.484375 182.453125 C 146.820312 182.257812 146.144531 182.175781 145.453125 182.207031 L 137.667969 182.207031 L 137.667969 169.433594 L 145.703125 169.433594 C 146.394531 169.464844 147.070312 169.382812 147.734375 169.183594 C 148.398438 168.988281 149.011719 168.691406 149.574219 168.289062 C 150.136719 167.890625 150.621094 167.410156 151.027344 166.847656 C 151.429688 166.285156 151.730469 165.675781 151.929688 165.011719 C 152.652344 162.539062 153.628906 160.175781 154.859375 157.910156 C 155.140625 157.320312 155.324219 156.703125 155.40625 156.054688 C 155.492188 155.40625 155.476562 154.761719 155.359375 154.117188 C 155.242188 153.476562 155.03125 152.867188 154.722656 152.289062 C 154.410156 151.714844 154.023438 151.199219 153.550781 150.746094 L 147.882812 145.078125 L 156.664062 136.296875 L 162.332031 141.964844 C 162.8125 142.441406 163.351562 142.832031 163.953125 143.136719 C 164.558594 143.4375 165.195312 143.636719 165.863281 143.730469 C 166.53125 143.828125 167.199219 143.816406 167.863281 143.691406 C 168.527344 143.570312 169.15625 143.347656 169.746094 143.023438 C 172.007812 141.792969 174.375 140.816406 176.847656 140.09375 C 177.511719 139.894531 178.121094 139.59375 178.683594 139.191406 C 179.246094 138.785156 179.726562 138.300781 180.125 137.738281 C 180.527344 137.175781 180.824219 136.5625 181.019531 135.898438 C 181.21875 135.234375 181.300781 134.558594 181.269531 133.867188 L 181.269531 125.832031 L 193.730469 125.832031 L 193.730469 133.867188 C 193.699219 134.558594 193.78125 135.234375 193.980469 135.898438 C 194.175781 136.5625 194.472656 137.175781 194.875 137.738281 C 195.273438 138.300781 195.753906 138.785156 196.316406 139.191406 C 196.878906 139.59375 197.488281 139.894531 198.152344 140.09375 C 200.625 140.816406 202.992188 141.792969 205.253906 143.023438 C 205.84375 143.304688 206.460938 143.488281 207.109375 143.574219 C 207.757812 143.65625 208.402344 143.640625 209.046875 143.523438 C 209.6875 143.40625 210.296875 143.195312 210.875 142.886719 C 211.449219 142.574219 211.964844 142.1875 212.417969 141.714844 L 218.085938 136.046875 L 226.867188 144.828125 L 221.199219 150.5 C 220.742188 150.988281 220.371094 151.539062 220.09375 152.152344 C 219.8125 152.761719 219.636719 153.402344 219.5625 154.070312 C 219.492188 154.738281 219.523438 155.402344 219.667969 156.058594 C 219.808594 156.714844 220.050781 157.332031 220.390625 157.910156 Z M 150.125 63.539062 L 150.125 124.957031 L 134.613281 140.40625 C 134.320312 140.695312 134.0625 141.011719 133.832031 141.351562 C 133.601562 141.695312 133.410156 142.054688 133.25 142.433594 C 133.09375 142.8125 132.972656 143.203125 132.890625 143.609375 C 132.8125 144.011719 132.769531 144.417969 132.769531 144.828125 C 132.769531 145.242188 132.8125 145.648438 132.890625 146.050781 C 132.972656 146.453125 133.09375 146.847656 133.25 147.226562 C 133.410156 147.605469 133.601562 147.964844 133.832031 148.304688 C 134.0625 148.648438 134.320312 148.964844 134.613281 149.253906 L 141.589844 156.230469 C 141.511719 156.488281 141.410156 156.738281 141.277344 156.976562 L 131.4375 156.976562 C 131.027344 156.976562 130.621094 157.015625 130.222656 157.097656 C 129.820312 157.175781 129.429688 157.292969 129.054688 157.449219 C 128.675781 157.609375 128.316406 157.800781 127.976562 158.027344 C 127.636719 158.253906 127.320312 158.511719 127.03125 158.800781 C 126.742188 159.089844 126.484375 159.40625 126.257812 159.746094 C 126.03125 160.085938 125.839844 160.445312 125.683594 160.820312 C 125.523438 161.199219 125.40625 161.589844 125.328125 161.992188 C 125.246094 162.390625 125.207031 162.796875 125.207031 163.207031 L 125.207031 169.433594 L 61.792969 169.433594 C 61.550781 168.75 61.269531 168.078125 60.949219 167.425781 C 60.628906 166.773438 60.269531 166.140625 59.875 165.527344 C 59.480469 164.917969 59.050781 164.328125 58.585938 163.769531 C 58.125 163.207031 57.628906 162.675781 57.105469 162.171875 C 56.578125 161.667969 56.023438 161.195312 55.445312 160.757812 C 54.863281 160.316406 54.257812 159.914062 53.628906 159.546875 C 53.003906 159.175781 52.355469 158.847656 51.6875 158.554688 C 51.023438 158.261719 50.339844 158.007812 49.644531 157.796875 C 48.949219 157.582031 48.242188 157.410156 47.527344 157.28125 C 46.808594 157.148438 46.089844 157.0625 45.363281 157.015625 C 44.636719 156.96875 43.910156 156.964844 43.183594 157.003906 C 42.453125 157.042969 41.734375 157.121094 41.015625 157.246094 C 40.296875 157.367188 39.589844 157.535156 38.890625 157.738281 C 38.191406 157.945312 37.507812 158.191406 36.839844 158.476562 C 36.167969 158.761719 35.519531 159.085938 34.886719 159.449219 C 34.253906 159.808594 33.648438 160.207031 33.0625 160.640625 C 32.476562 161.074219 31.917969 161.539062 31.386719 162.035156 C 30.855469 162.535156 30.355469 163.0625 29.886719 163.621094 C 29.417969 164.175781 28.984375 164.757812 28.582031 165.367188 C 28.179688 165.972656 27.816406 166.601562 27.488281 167.25 C 27.160156 167.902344 26.871094 168.570312 26.621094 169.253906 C 26.371094 169.9375 26.164062 170.632812 25.996094 171.339844 C 25.824219 172.050781 25.699219 172.765625 25.613281 173.488281 C 25.53125 174.210938 25.488281 174.9375 25.488281 175.664062 C 25.488281 176.390625 25.53125 177.117188 25.613281 177.839844 C 25.699219 178.5625 25.824219 179.28125 25.996094 179.988281 C 26.164062 180.695312 26.371094 181.390625 26.621094 182.078125 C 26.871094 182.761719 27.160156 183.425781 27.488281 184.078125 C 27.816406 184.726562 28.179688 185.355469 28.582031 185.964844 C 28.984375 186.570312 29.417969 187.152344 29.886719 187.710938 C 30.355469 188.265625 30.855469 188.792969 31.386719 189.292969 C 31.917969 189.789062 32.476562 190.253906 33.0625 190.6875 C 33.648438 191.121094 34.253906 191.519531 34.886719 191.878906 C 35.519531 192.242188 36.167969 192.566406 36.839844 192.851562 C 37.507812 193.136719 38.191406 193.382812 38.890625 193.589844 C 39.589844 193.796875 40.296875 193.960938 41.015625 194.082031 C 41.734375 194.207031 42.453125 194.285156 43.183594 194.324219 C 43.910156 194.363281 44.636719 194.359375 45.363281 194.3125 C 46.089844 194.269531 46.808594 194.179688 47.527344 194.050781 C 48.242188 193.917969 48.949219 193.746094 49.644531 193.535156 C 50.339844 193.320312 51.023438 193.066406 51.6875 192.773438 C 52.355469 192.480469 53.003906 192.152344 53.628906 191.785156 C 54.257812 191.414062 54.863281 191.011719 55.445312 190.574219 C 56.023438 190.132812 56.578125 189.660156 57.105469 189.160156 C 57.628906 188.65625 58.125 188.121094 58.585938 187.5625 C 59.050781 187 59.480469 186.414062 59.875 185.800781 C 60.269531 185.1875 60.628906 184.558594 60.949219 183.902344 C 61.269531 183.25 61.550781 182.578125 61.792969 181.894531 L 125.207031 181.894531 L 125.207031 188.121094 C 125.207031 188.53125 125.246094 188.9375 125.328125 189.339844 C 125.40625 189.738281 125.523438 190.128906 125.683594 190.507812 C 125.839844 190.882812 126.03125 191.242188 126.257812 191.582031 C 126.484375 191.921875 126.742188 192.238281 127.03125 192.527344 C 127.320312 192.816406 127.636719 193.074219 127.976562 193.300781 C 128.316406 193.53125 128.675781 193.722656 129.054688 193.878906 C 129.429688 194.035156 129.820312 194.152344 130.222656 194.234375 C 130.621094 194.3125 131.027344 194.351562 131.4375 194.351562 L 141.277344 194.351562 C 141.410156 194.589844 141.511719 194.839844 141.589844 195.101562 L 134.613281 202.078125 C 134.03125 202.664062 133.582031 203.339844 133.269531 204.109375 C 132.957031 204.875 132.800781 205.671875 132.808594 206.5 C 132.820312 207.324219 132.980469 208.117188 133.292969 208.882812 C 133.605469 209.644531 134.042969 210.324219 134.613281 210.921875 L 152.242188 228.550781 C 152.53125 228.84375 152.847656 229.101562 153.1875 229.332031 C 153.53125 229.5625 153.890625 229.757812 154.269531 229.914062 C 154.648438 230.074219 155.039062 230.191406 155.445312 230.273438 C 155.847656 230.351562 156.253906 230.394531 156.664062 230.394531 C 157.078125 230.394531 157.484375 230.351562 157.886719 230.273438 C 158.289062 230.191406 158.679688 230.074219 159.0625 229.914062 C 159.441406 229.757812 159.800781 229.5625 160.140625 229.332031 C 160.484375 229.101562 160.796875 228.84375 161.089844 228.550781 L 168.066406 221.574219 L 168.8125 221.886719 L 168.8125 231.726562 C 168.8125 232.136719 168.851562 232.542969 168.933594 232.941406 C 169.011719 233.34375 169.128906 233.734375 169.285156 234.113281 C 169.441406 234.488281 169.636719 234.847656 169.863281 235.1875 C 170.089844 235.527344 170.347656 235.84375 170.636719 236.132812 C 170.925781 236.421875 171.242188 236.679688 171.582031 236.90625 C 171.921875 237.132812 172.28125 237.324219 172.65625 237.484375 C 173.035156 237.640625 173.425781 237.757812 173.828125 237.835938 C 174.226562 237.917969 174.632812 237.957031 175.042969 237.957031 L 199.957031 237.957031 C 200.367188 237.957031 200.773438 237.917969 201.171875 237.835938 C 201.574219 237.757812 201.964844 237.640625 202.34375 237.484375 C 202.71875 237.324219 203.078125 237.132812 203.417969 236.90625 C 203.757812 236.679688 204.074219 236.421875 204.363281 236.132812 C 204.652344 235.84375 204.910156 235.527344 205.136719 235.1875 C 205.363281 234.847656 205.558594 234.488281 205.714844 234.113281 C 205.871094 233.734375 205.988281 233.34375 206.066406 232.941406 C 206.148438 232.542969 206.1875 232.136719 206.1875 231.726562 L 206.1875 221.886719 L 206.933594 221.574219 L 213.910156 228.550781 C 214.203125 228.84375 214.515625 229.101562 214.859375 229.332031 C 215.199219 229.5625 215.558594 229.757812 215.9375 229.914062 C 216.320312 230.074219 216.710938 230.191406 217.113281 230.273438 C 217.515625 230.351562 217.921875 230.394531 218.335938 230.394531 C 218.746094 230.394531 219.152344 230.351562 219.554688 230.273438 C 219.960938 230.191406 220.351562 230.074219 220.730469 229.914062 C 221.109375 229.757812 221.46875 229.5625 221.8125 229.332031 C 222.152344 229.101562 222.46875 228.84375 222.757812 228.550781 L 240.386719 210.921875 C 240.957031 210.324219 241.394531 209.644531 241.707031 208.882812 C 242.019531 208.117188 242.179688 207.324219 242.191406 206.5 C 242.199219 205.671875 242.042969 204.875 241.730469 204.109375 C 241.417969 203.339844 240.96875 202.664062 240.386719 202.078125 L 233.410156 195.101562 C 233.488281 194.839844 233.589844 194.589844 233.722656 194.351562 L 243.5625 194.351562 C 243.972656 194.351562 244.378906 194.3125 244.777344 194.234375 C 245.179688 194.152344 245.570312 194.035156 245.945312 193.878906 C 246.324219 193.722656 246.683594 193.53125 247.023438 193.300781 C 247.363281 193.074219 247.679688 192.816406 247.96875 192.527344 C 248.257812 192.238281 248.515625 191.921875 248.742188 191.582031 C 248.96875 191.242188 249.160156 190.882812 249.316406 190.507812 C 249.476562 190.128906 249.59375 189.738281 249.671875 189.339844 C 249.753906 188.9375 249.792969 188.53125 249.792969 188.121094 L 249.792969 181.894531 L 313.207031 181.894531 C 313.449219 182.578125 313.730469 183.25 314.050781 183.902344 C 314.371094 184.558594 314.730469 185.1875 315.125 185.800781 C 315.519531 186.414062 315.949219 187 316.414062 187.5625 C 316.875 188.121094 317.371094 188.65625 317.894531 189.160156 C 318.421875 189.660156 318.976562 190.132812 319.554688 190.574219 C 320.136719 191.011719 320.742188 191.414062 321.371094 191.785156 C 321.996094 192.152344 322.644531 192.480469 323.3125 192.773438 C 323.976562 193.066406 324.660156 193.320312 325.355469 193.535156 C 326.050781 193.746094 326.757812 193.917969 327.472656 194.050781 C 328.191406 194.179688 328.910156 194.269531 329.636719 194.3125 C 330.363281 194.359375 331.089844 194.363281 331.816406 194.324219 C 332.546875 194.285156 333.265625 194.207031 333.984375 194.082031 C 334.703125 193.960938 335.410156 193.796875 336.109375 193.589844 C 336.808594 193.382812 337.492188 193.136719 338.160156 192.851562 C 338.832031 192.566406 339.480469 192.242188 340.113281 191.878906 C 340.746094 191.519531 341.351562 191.121094 341.9375 190.6875 C 342.523438 190.253906 343.082031 189.789062 343.613281 189.292969 C 344.144531 188.792969 344.644531 188.265625 345.113281 187.710938 C 345.582031 187.152344 346.015625 186.570312 346.417969 185.964844 C 346.820312 185.355469 347.183594 184.726562 347.511719 184.078125 C 347.839844 183.425781 348.128906 182.761719 348.378906 182.078125 C 348.628906 181.390625 348.835938 180.695312 349.003906 179.988281 C 349.175781 179.28125 349.300781 178.5625 349.386719 177.839844 C 349.46875 177.117188 349.511719 176.390625 349.511719 175.664062 C 349.511719 174.9375 349.46875 174.210938 349.386719 173.488281 C 349.300781 172.765625 349.175781 172.050781 349.003906 171.339844 C 348.835938 170.632812 348.628906 169.9375 348.378906 169.253906 C 348.128906 168.570312 347.839844 167.902344 347.511719 167.25 C 347.183594 166.601562 346.820312 165.972656 346.417969 165.367188 C 346.015625 164.757812 345.582031 164.175781 345.113281 163.621094 C 344.644531 163.0625 344.144531 162.535156 343.613281 162.035156 C 343.082031 161.539062 342.523438 161.074219 341.9375 160.640625 C 341.351562 160.207031 340.746094 159.808594 340.113281 159.449219 C 339.480469 159.085938 338.832031 158.761719 338.160156 158.476562 C 337.492188 158.191406 336.808594 157.945312 336.109375 157.738281 C 335.410156 157.535156 334.703125 157.367188 333.984375 157.246094 C 333.265625 157.121094 332.546875 157.042969 331.816406 157.003906 C 331.089844 156.964844 330.363281 156.96875 329.636719 157.015625 C 328.910156 157.0625 328.191406 157.148438 327.472656 157.28125 C 326.757812 157.410156 326.050781 157.582031 325.355469 157.796875 C 324.660156 158.007812 323.976562 158.261719 323.3125 158.554688 C 322.644531 158.847656 321.996094 159.175781 321.371094 159.546875 C 320.742188 159.914062 320.136719 160.316406 319.554688 160.757812 C 318.976562 161.195312 318.421875 161.667969 317.898438 162.171875 C 317.371094 162.675781 316.875 163.207031 316.414062 163.769531 C 315.949219 164.328125 315.519531 164.917969 315.125 165.527344 C 314.730469 166.140625 314.371094 166.773438 314.050781 167.425781 C 313.730469 168.078125 313.449219 168.75 313.207031 169.433594 L 249.792969 169.433594 L 249.792969 163.207031 C 249.792969 162.796875 249.753906 162.390625 249.671875 161.992188 C 249.59375 161.589844 249.476562 161.199219 249.316406 160.820312 C 249.160156 160.445312 248.96875 160.085938 248.742188 159.746094 C 248.515625 159.40625 248.257812 159.089844 247.96875 158.800781 C 247.679688 158.511719 247.363281 158.253906 247.023438 158.027344 C 246.683594 157.800781 246.324219 157.605469 245.945312 157.449219 C 245.570312 157.292969 245.179688 157.175781 244.777344 157.097656 C 244.378906 157.015625 243.972656 156.976562 243.5625 156.976562 L 233.722656 156.976562 C 233.589844 156.738281 233.488281 156.488281 233.410156 156.230469 L 240.386719 149.253906 C 240.679688 148.964844 240.9375 148.648438 241.167969 148.304688 C 241.398438 147.964844 241.589844 147.605469 241.75 147.226562 C 241.90625 146.847656 242.027344 146.453125 242.109375 146.050781 C 242.1875 145.648438 242.230469 145.242188 242.230469 144.828125 C 242.230469 144.417969 242.1875 144.011719 242.109375 143.609375 C 242.027344 143.203125 241.90625 142.8125 241.75 142.433594 C 241.589844 142.054688 241.398438 141.695312 241.167969 141.351562 C 240.9375 141.011719 240.679688 140.695312 240.386719 140.40625 L 224.875 124.957031 L 224.875 63.539062 L 361.917969 63.539062 L 361.917969 262.875 L 13.082031 262.875 L 13.082031 63.539062 Z M 50.457031 175.664062 C 50.457031 176.074219 50.417969 176.480469 50.335938 176.878906 C 50.257812 177.28125 50.140625 177.671875 49.984375 178.046875 C 49.824219 178.425781 49.632812 178.785156 49.40625 179.125 C 49.179688 179.464844 48.921875 179.78125 48.632812 180.070312 C 48.34375 180.359375 48.027344 180.617188 47.6875 180.84375 C 47.347656 181.070312 46.988281 181.261719 46.613281 181.417969 C 46.234375 181.574219 45.84375 181.695312 45.441406 181.773438 C 45.042969 181.855469 44.636719 181.894531 44.226562 181.894531 C 43.820312 181.894531 43.414062 181.855469 43.011719 181.773438 C 42.609375 181.695312 42.222656 181.574219 41.84375 181.417969 C 41.464844 181.261719 41.105469 181.070312 40.765625 180.84375 C 40.425781 180.617188 40.113281 180.359375 39.824219 180.070312 C 39.535156 179.78125 39.273438 179.464844 39.046875 179.125 C 38.820312 178.785156 38.628906 178.425781 38.472656 178.046875 C 38.316406 177.671875 38.199219 177.28125 38.117188 176.878906 C 38.039062 176.480469 38 176.074219 38 175.664062 C 38 175.253906 38.039062 174.851562 38.117188 174.449219 C 38.199219 174.046875 38.316406 173.660156 38.472656 173.28125 C 38.628906 172.902344 38.820312 172.542969 39.046875 172.203125 C 39.273438 171.863281 39.535156 171.550781 39.824219 171.257812 C 40.113281 170.96875 40.425781 170.710938 40.765625 170.484375 C 41.105469 170.257812 41.464844 170.066406 41.84375 169.910156 C 42.222656 169.753906 42.609375 169.632812 43.011719 169.554688 C 43.414062 169.476562 43.820312 169.433594 44.226562 169.433594 C 44.636719 169.433594 45.042969 169.476562 45.441406 169.554688 C 45.84375 169.632812 46.234375 169.753906 46.613281 169.910156 C 46.988281 170.066406 47.347656 170.257812 47.6875 170.484375 C 48.027344 170.710938 48.34375 170.96875 48.632812 171.257812 C 48.921875 171.550781 49.179688 171.863281 49.40625 172.203125 C 49.632812 172.542969 49.824219 172.902344 49.984375 173.28125 C 50.140625 173.660156 50.257812 174.046875 50.335938 174.449219 C 50.417969 174.851562 50.457031 175.253906 50.457031 175.664062 Z M 324.542969 175.664062 C 324.542969 175.253906 324.582031 174.851562 324.664062 174.449219 C 324.742188 174.046875 324.859375 173.660156 325.015625 173.28125 C 325.171875 172.902344 325.367188 172.542969 325.59375 172.203125 C 325.820312 171.863281 326.078125 171.550781 326.367188 171.257812 C 326.65625 170.96875 326.972656 170.710938 327.3125 170.484375 C 327.652344 170.257812 328.011719 170.066406 328.386719 169.910156 C 328.765625 169.753906 329.15625 169.632812 329.558594 169.554688 C 329.957031 169.476562 330.363281 169.433594 330.773438 169.433594 C 331.179688 169.433594 331.585938 169.476562 331.988281 169.554688 C 332.390625 169.632812 332.777344 169.753906 333.15625 169.910156 C 333.535156 170.066406 333.894531 170.257812 334.234375 170.484375 C 334.574219 170.710938 334.886719 170.96875 335.175781 171.257812 C 335.464844 171.550781 335.722656 171.863281 335.953125 172.203125 C 336.179688 172.542969 336.371094 172.902344 336.527344 173.28125 C 336.683594 173.660156 336.800781 174.046875 336.882812 174.449219 C 336.960938 174.851562 337 175.253906 337 175.664062 C 337 176.074219 336.960938 176.480469 336.882812 176.878906 C 336.800781 177.28125 336.683594 177.671875 336.527344 178.046875 C 336.371094 178.425781 336.179688 178.785156 335.953125 179.125 C 335.722656 179.464844 335.464844 179.78125 335.175781 180.070312 C 334.886719 180.359375 334.574219 180.617188 334.234375 180.84375 C 333.894531 181.070312 333.535156 181.261719 333.15625 181.417969 C 332.777344 181.574219 332.390625 181.695312 331.988281 181.773438 C 331.585938 181.855469 331.179688 181.894531 330.773438 181.894531 C 330.363281 181.894531 329.957031 181.855469 329.558594 181.773438 C 329.15625 181.695312 328.765625 181.574219 328.386719 181.417969 C 328.011719 181.261719 327.652344 181.070312 327.3125 180.84375 C 326.972656 180.617188 326.65625 180.359375 326.367188 180.070312 C 326.078125 179.78125 325.820312 179.464844 325.59375 179.125 C 325.367188 178.785156 325.171875 178.425781 325.015625 178.046875 C 324.859375 177.671875 324.742188 177.28125 324.664062 176.878906 C 324.582031 176.480469 324.542969 176.074219 324.542969 175.664062 Z M 287.167969 362.542969 L 87.832031 362.542969 L 87.832031 350.082031 L 287.167969 350.082031 Z M 218.644531 337.625 L 156.355469 337.625 L 156.355469 300.25 L 218.644531 300.25 Z M 13.082031 287.789062 L 13.082031 275.332031 L 361.917969 275.332031 L 361.917969 287.789062 Z M 13.082031 287.789062 " fill-opacity="1" fill-rule="nonzero"/><path fill="#000000" d="M 187.5 150.746094 C 186.683594 150.746094 185.871094 150.789062 185.058594 150.867188 C 184.246094 150.949219 183.4375 151.066406 182.640625 151.226562 C 181.839844 151.386719 181.046875 151.582031 180.265625 151.820312 C 179.484375 152.058594 178.71875 152.332031 177.964844 152.644531 C 177.210938 152.957031 176.472656 153.304688 175.753906 153.691406 C 175.035156 154.074219 174.335938 154.492188 173.65625 154.945312 C 172.976562 155.398438 172.324219 155.886719 171.691406 156.402344 C 171.0625 156.921875 170.457031 157.46875 169.882812 158.046875 C 169.304688 158.621094 168.757812 159.226562 168.238281 159.855469 C 167.722656 160.488281 167.234375 161.144531 166.78125 161.820312 C 166.328125 162.5 165.910156 163.199219 165.523438 163.917969 C 165.140625 164.636719 164.792969 165.375 164.480469 166.128906 C 164.167969 166.882812 163.894531 167.652344 163.65625 168.429688 C 163.417969 169.210938 163.222656 170.003906 163.0625 170.804688 C 162.902344 171.605469 162.78125 172.410156 162.703125 173.222656 C 162.621094 174.035156 162.582031 174.847656 162.582031 175.664062 C 162.582031 176.480469 162.621094 177.292969 162.703125 178.105469 C 162.78125 178.917969 162.902344 179.726562 163.0625 180.527344 C 163.222656 181.324219 163.417969 182.117188 163.65625 182.898438 C 163.894531 183.679688 164.167969 184.445312 164.480469 185.199219 C 164.792969 185.953125 165.140625 186.691406 165.523438 187.410156 C 165.910156 188.128906 166.328125 188.828125 166.78125 189.507812 C 167.234375 190.1875 167.722656 190.839844 168.238281 191.472656 C 168.757812 192.101562 169.304688 192.707031 169.882812 193.285156 C 170.457031 193.859375 171.0625 194.40625 171.691406 194.925781 C 172.324219 195.441406 172.976562 195.929688 173.65625 196.382812 C 174.335938 196.835938 175.035156 197.253906 175.753906 197.640625 C 176.472656 198.023438 177.210938 198.371094 177.964844 198.683594 C 178.71875 198.996094 179.484375 199.273438 180.265625 199.507812 C 181.046875 199.746094 181.839844 199.945312 182.640625 200.101562 C 183.4375 200.261719 184.246094 200.382812 185.058594 200.460938 C 185.871094 200.542969 186.683594 200.582031 187.5 200.582031 C 188.316406 200.582031 189.128906 200.542969 189.941406 200.460938 C 190.753906 200.382812 191.5625 200.261719 192.359375 200.101562 C 193.160156 199.945312 193.953125 199.746094 194.734375 199.507812 C 195.515625 199.273438 196.28125 198.996094 197.035156 198.683594 C 197.789062 198.371094 198.527344 198.023438 199.246094 197.640625 C 199.964844 197.253906 200.664062 196.835938 201.34375 196.382812 C 202.023438 195.929688 202.675781 195.441406 203.308594 194.925781 C 203.9375 194.40625 204.542969 193.859375 205.117188 193.285156 C 205.695312 192.707031 206.242188 192.101562 206.761719 191.472656 C 207.277344 190.839844 207.765625 190.1875 208.21875 189.507812 C 208.671875 188.828125 209.089844 188.128906 209.476562 187.410156 C 209.859375 186.691406 210.207031 185.953125 210.519531 185.199219 C 210.832031 184.445312 211.105469 183.679688 211.34375 182.898438 C 211.582031 182.117188 211.777344 181.324219 211.9375 180.527344 C 212.097656 179.726562 212.21875 178.917969 212.296875 178.105469 C 212.375 177.292969 212.417969 176.480469 212.417969 175.664062 C 212.417969 174.847656 212.375 174.035156 212.296875 173.222656 C 212.21875 172.410156 212.097656 171.605469 211.9375 170.804688 C 211.777344 170.003906 211.582031 169.210938 211.34375 168.429688 C 211.105469 167.652344 210.832031 166.882812 210.519531 166.128906 C 210.207031 165.375 209.859375 164.636719 209.476562 163.917969 C 209.089844 163.199219 208.671875 162.5 208.21875 161.820312 C 207.765625 161.144531 207.277344 160.488281 206.761719 159.855469 C 206.242188 159.226562 205.695312 158.621094 205.117188 158.046875 C 204.542969 157.46875 203.9375 156.921875 203.308594 156.402344 C 202.675781 155.886719 202.023438 155.398438 201.34375 154.945312 C 200.664062 154.492188 199.964844 154.074219 199.246094 153.691406 C 198.527344 153.304688 197.789062 152.957031 197.035156 152.644531 C 196.28125 152.332031 195.515625 152.058594 194.734375 151.820312 C 193.953125 151.582031 193.160156 151.386719 192.359375 151.226562 C 191.5625 151.066406 190.753906 150.949219 189.941406 150.867188 C 189.128906 150.789062 188.316406 150.746094 187.5 150.746094 Z M 187.5 188.121094 C 186.683594 188.121094 185.871094 188.042969 185.070312 187.882812 C 184.265625 187.722656 183.488281 187.488281 182.730469 187.175781 C 181.976562 186.863281 181.257812 186.476562 180.578125 186.023438 C 179.898438 185.570312 179.269531 185.050781 178.691406 184.472656 C 178.113281 183.894531 177.59375 183.265625 177.140625 182.585938 C 176.6875 181.90625 176.304688 181.1875 175.988281 180.433594 C 175.675781 179.675781 175.441406 178.898438 175.28125 178.09375 C 175.121094 177.292969 175.042969 176.484375 175.042969 175.664062 C 175.042969 174.847656 175.121094 174.035156 175.28125 173.234375 C 175.441406 172.429688 175.675781 171.652344 175.988281 170.898438 C 176.304688 170.140625 176.6875 169.421875 177.140625 168.742188 C 177.59375 168.0625 178.113281 167.433594 178.691406 166.855469 C 179.269531 166.277344 179.898438 165.761719 180.578125 165.304688 C 181.257812 164.851562 181.976562 164.46875 182.730469 164.152344 C 183.488281 163.839844 184.265625 163.605469 185.070312 163.445312 C 185.871094 163.285156 186.683594 163.207031 187.5 163.207031 C 188.316406 163.207031 189.128906 163.285156 189.929688 163.445312 C 190.734375 163.605469 191.511719 163.839844 192.269531 164.15625 C 193.023438 164.46875 193.742188 164.851562 194.421875 165.304688 C 195.101562 165.761719 195.730469 166.277344 196.308594 166.855469 C 196.886719 167.433594 197.40625 168.0625 197.859375 168.742188 C 198.3125 169.421875 198.695312 170.140625 199.011719 170.898438 C 199.324219 171.652344 199.558594 172.429688 199.71875 173.234375 C 199.878906 174.035156 199.957031 174.847656 199.957031 175.664062 C 199.957031 176.484375 199.878906 177.292969 199.71875 178.09375 C 199.558594 178.898438 199.324219 179.675781 199.011719 180.433594 C 198.695312 181.1875 198.3125 181.90625 197.859375 182.585938 C 197.40625 183.265625 196.886719 183.894531 196.308594 184.472656 C 195.730469 185.050781 195.101562 185.570312 194.421875 186.023438 C 193.742188 186.476562 193.023438 186.863281 192.269531 187.175781 C 191.511719 187.488281 190.734375 187.722656 189.929688 187.882812 C 189.128906 188.042969 188.316406 188.121094 187.5 188.121094 Z M 187.5 188.121094 " fill-opacity="1" fill-rule="nonzero"/><path fill="#000000" d="M 31.769531 88.457031 L 62.914062 88.457031 L 62.914062 138.289062 C 62.914062 138.699219 62.957031 139.101562 63.035156 139.503906 C 63.113281 139.90625 63.234375 140.296875 63.390625 140.671875 C 63.546875 141.050781 63.738281 141.410156 63.964844 141.75 C 64.191406 142.089844 64.449219 142.40625 64.738281 142.695312 C 65.027344 142.984375 65.34375 143.242188 65.683594 143.46875 C 66.023438 143.695312 66.382812 143.886719 66.761719 144.042969 C 67.136719 144.199219 67.527344 144.320312 67.929688 144.398438 C 68.332031 144.476562 68.734375 144.519531 69.144531 144.519531 L 106.519531 144.519531 C 106.929688 144.519531 107.335938 144.476562 107.734375 144.398438 C 108.136719 144.320312 108.527344 144.199219 108.902344 144.042969 C 109.28125 143.886719 109.640625 143.695312 109.980469 143.46875 C 110.320312 143.242188 110.636719 142.984375 110.925781 142.695312 C 111.214844 142.40625 111.472656 142.089844 111.699219 141.75 C 111.925781 141.410156 112.117188 141.050781 112.273438 140.671875 C 112.429688 140.296875 112.550781 139.90625 112.628906 139.503906 C 112.710938 139.101562 112.75 138.699219 112.75 138.289062 C 112.75 137.878906 112.710938 137.476562 112.628906 137.074219 C 112.550781 136.671875 112.429688 136.28125 112.273438 135.90625 C 112.117188 135.527344 111.925781 135.167969 111.699219 134.828125 C 111.472656 134.488281 111.214844 134.171875 110.925781 133.882812 C 110.636719 133.59375 110.320312 133.335938 109.980469 133.109375 C 109.640625 132.882812 109.28125 132.691406 108.902344 132.535156 C 108.527344 132.378906 108.136719 132.257812 107.734375 132.179688 C 107.335938 132.101562 106.929688 132.058594 106.519531 132.058594 L 75.375 132.058594 L 75.375 82.226562 C 75.375 81.816406 75.332031 81.410156 75.253906 81.011719 C 75.175781 80.609375 75.054688 80.21875 74.898438 79.84375 C 74.742188 79.464844 74.550781 79.105469 74.324219 78.765625 C 74.097656 78.425781 73.839844 78.109375 73.550781 77.820312 C 73.261719 77.53125 72.945312 77.273438 72.605469 77.046875 C 72.265625 76.820312 71.90625 76.628906 71.527344 76.472656 C 71.152344 76.3125 70.761719 76.195312 70.359375 76.117188 C 69.957031 76.035156 69.554688 75.996094 69.144531 75.996094 L 31.769531 75.996094 C 31.359375 75.996094 30.953125 76.035156 30.554688 76.117188 C 30.152344 76.195312 29.761719 76.3125 29.386719 76.472656 C 29.007812 76.628906 28.648438 76.820312 28.308594 77.046875 C 27.96875 77.273438 27.652344 77.53125 27.363281 77.820312 C 27.074219 78.109375 26.816406 78.425781 26.589844 78.765625 C 26.363281 79.105469 26.171875 79.464844 26.015625 79.84375 C 25.859375 80.21875 25.738281 80.609375 25.660156 81.011719 C 25.578125 81.410156 25.539062 81.816406 25.539062 82.226562 C 25.539062 82.636719 25.578125 83.039062 25.660156 83.441406 C 25.738281 83.84375 25.859375 84.230469 26.015625 84.609375 C 26.171875 84.988281 26.363281 85.347656 26.589844 85.6875 C 26.816406 86.027344 27.074219 86.339844 27.363281 86.628906 C 27.652344 86.917969 27.96875 87.179688 28.308594 87.40625 C 28.648438 87.632812 29.007812 87.824219 29.386719 87.980469 C 29.761719 88.136719 30.152344 88.253906 30.554688 88.335938 C 30.953125 88.414062 31.359375 88.457031 31.769531 88.457031 Z M 31.769531 88.457031 " fill-opacity="1" fill-rule="nonzero"/><path fill="#000000" d="M 343.230469 75.996094 L 305.855469 75.996094 C 305.445312 75.996094 305.042969 76.035156 304.640625 76.117188 C 304.238281 76.195312 303.847656 76.3125 303.472656 76.472656 C 303.09375 76.628906 302.734375 76.820312 302.394531 77.046875 C 302.054688 77.273438 301.738281 77.53125 301.449219 77.820312 C 301.160156 78.109375 300.902344 78.425781 300.675781 78.765625 C 300.449219 79.105469 300.257812 79.464844 300.101562 79.84375 C 299.945312 80.21875 299.824219 80.609375 299.746094 81.011719 C 299.667969 81.410156 299.625 81.816406 299.625 82.226562 L 299.625 132.058594 L 268.480469 132.058594 C 268.070312 132.058594 267.664062 132.101562 267.265625 132.179688 C 266.863281 132.257812 266.472656 132.378906 266.097656 132.535156 C 265.71875 132.691406 265.359375 132.882812 265.019531 133.109375 C 264.679688 133.335938 264.363281 133.59375 264.074219 133.882812 C 263.785156 134.171875 263.527344 134.488281 263.300781 134.828125 C 263.074219 135.167969 262.882812 135.527344 262.726562 135.90625 C 262.570312 136.28125 262.449219 136.671875 262.371094 137.074219 C 262.289062 137.476562 262.25 137.878906 262.25 138.289062 C 262.25 138.699219 262.289062 139.101562 262.371094 139.503906 C 262.449219 139.90625 262.570312 140.296875 262.726562 140.671875 C 262.882812 141.050781 263.074219 141.410156 263.300781 141.75 C 263.527344 142.089844 263.785156 142.40625 264.074219 142.695312 C 264.363281 142.984375 264.679688 143.242188 265.019531 143.46875 C 265.359375 143.695312 265.71875 143.886719 266.097656 144.042969 C 266.472656 144.199219 266.863281 144.320312 267.265625 144.398438 C 267.664062 144.476562 268.070312 144.519531 268.480469 144.519531 L 305.855469 144.519531 C 306.265625 144.519531 306.667969 144.476562 307.070312 144.398438 C 307.472656 144.320312 307.863281 144.199219 308.238281 144.042969 C 308.617188 143.886719 308.976562 143.695312 309.316406 143.46875 C 309.65625 143.242188 309.972656 142.984375 310.261719 142.695312 C 310.550781 142.40625 310.808594 142.089844 311.035156 141.75 C 311.261719 141.410156 311.453125 141.050781 311.609375 140.671875 C 311.765625 140.296875 311.886719 139.90625 311.964844 139.503906 C 312.042969 139.101562 312.085938 138.699219 312.085938 138.289062 L 312.085938 88.457031 L 343.230469 88.457031 C 343.640625 88.457031 344.046875 88.414062 344.445312 88.335938 C 344.847656 88.253906 345.238281 88.136719 345.613281 87.980469 C 345.992188 87.824219 346.351562 87.632812 346.691406 87.40625 C 347.03125 87.179688 347.347656 86.917969 347.636719 86.628906 C 347.925781 86.339844 348.183594 86.027344 348.410156 85.6875 C 348.636719 85.347656 348.828125 84.988281 348.984375 84.609375 C 349.140625 84.230469 349.261719 83.84375 349.339844 83.441406 C 349.421875 83.039062 349.460938 82.636719 349.460938 82.226562 C 349.460938 81.816406 349.421875 81.410156 349.339844 81.011719 C 349.261719 80.609375 349.140625 80.21875 348.984375 79.84375 C 348.828125 79.464844 348.636719 79.105469 348.410156 78.765625 C 348.183594 78.425781 347.925781 78.109375 347.636719 77.820312 C 347.347656 77.53125 347.03125 77.273438 346.691406 77.046875 C 346.351562 76.820312 345.992188 76.628906 345.613281 76.472656 C 345.238281 76.3125 344.847656 76.195312 344.445312 76.117188 C 344.046875 76.035156 343.640625 75.996094 343.230469 75.996094 Z M 343.230469 75.996094 " fill-opacity="1" fill-rule="nonzero"/></svg>